<mxfile host="app.diagrams.net" modified="2022-11-30T10:57:56.736Z" agent="5.0 (Windows NT 10.0; Win64; x64) AppleWebKit/537.36 (KHTML, like Gecko) Chrome/107.0.0.0 Safari/537.36" etag="M0-vws9mng82NJOaKe2k" version="20.5.3" type="github" pages="4">
  <diagram id="LHeB4NjMnUi0cGWfg-VW" name="原架构">
    <mxGraphModel dx="1550" dy="827" grid="1" gridSize="10" guides="1" tooltips="1" connect="1" arrows="1" fold="1" page="1" pageScale="1" pageWidth="827" pageHeight="1169" math="0" shadow="0">
      <root>
        <mxCell id="0" />
        <mxCell id="1" parent="0" />
        <mxCell id="P3jRsYUMKIRg7UYWmszn-2" value="" style="rounded=0;whiteSpace=wrap;html=1;fillColor=#dae8fc;strokeColor=#6c8ebf;" parent="1" vertex="1">
          <mxGeometry x="100" y="40" width="960" height="90" as="geometry" />
        </mxCell>
        <mxCell id="P3jRsYUMKIRg7UYWmszn-4" value="&lt;font style=&quot;font-size: 24px;&quot;&gt;微信（公众号、小程序）&lt;/font&gt;" style="rounded=1;whiteSpace=wrap;html=1;" parent="1" vertex="1">
          <mxGeometry x="120" y="60" width="270" height="60" as="geometry" />
        </mxCell>
        <mxCell id="P3jRsYUMKIRg7UYWmszn-5" value="&lt;font style=&quot;font-size: 24px;&quot;&gt;移动App（快应用、仓雄）&lt;/font&gt;" style="rounded=1;whiteSpace=wrap;html=1;" parent="1" vertex="1">
          <mxGeometry x="411.31" y="57.5" width="288.69" height="62.5" as="geometry" />
        </mxCell>
        <mxCell id="P3jRsYUMKIRg7UYWmszn-8" value="&lt;font style=&quot;font-size: 24px;&quot;&gt;外部流量&lt;/font&gt;" style="text;html=1;strokeColor=none;fillColor=none;align=center;verticalAlign=middle;whiteSpace=wrap;rounded=0;" parent="1" vertex="1">
          <mxGeometry y="72.5" width="100" height="50" as="geometry" />
        </mxCell>
        <mxCell id="P3jRsYUMKIRg7UYWmszn-9" value="" style="rounded=0;whiteSpace=wrap;html=1;fillColor=#dae8fc;strokeColor=#6c8ebf;" parent="1" vertex="1">
          <mxGeometry x="100" y="150" width="960" height="50" as="geometry" />
        </mxCell>
        <mxCell id="P3jRsYUMKIRg7UYWmszn-10" value="&lt;font style=&quot;font-size: 24px;&quot;&gt;接入层&lt;/font&gt;" style="text;html=1;strokeColor=none;fillColor=none;align=center;verticalAlign=middle;whiteSpace=wrap;rounded=0;" parent="1" vertex="1">
          <mxGeometry x="10" y="160" width="80" height="30" as="geometry" />
        </mxCell>
        <mxCell id="P3jRsYUMKIRg7UYWmszn-11" value="&lt;font style=&quot;font-size: 24px;&quot;&gt;TGW&lt;/font&gt;" style="rounded=1;whiteSpace=wrap;html=1;" parent="1" vertex="1">
          <mxGeometry x="190" y="160" width="770" height="30" as="geometry" />
        </mxCell>
        <mxCell id="P3jRsYUMKIRg7UYWmszn-13" value="&lt;font style=&quot;font-size: 24px;&quot;&gt;APIGateway&lt;/font&gt;" style="rounded=0;whiteSpace=wrap;html=1;dashed=1;fillColor=#dae8fc;strokeColor=#6c8ebf;" parent="1" vertex="1">
          <mxGeometry x="100" y="220" width="960" height="50" as="geometry" />
        </mxCell>
        <mxCell id="P3jRsYUMKIRg7UYWmszn-14" value="&lt;font style=&quot;&quot;&gt;&lt;font style=&quot;font-size: 24px;&quot;&gt;网关层&lt;br&gt;&lt;/font&gt;&lt;font style=&quot;font-size: 18px;&quot;&gt;熔断插件、协议转换&lt;/font&gt;&lt;/font&gt;" style="text;html=1;strokeColor=none;fillColor=none;align=center;verticalAlign=middle;whiteSpace=wrap;rounded=0;" parent="1" vertex="1">
          <mxGeometry x="10" y="235" width="80" height="35" as="geometry" />
        </mxCell>
        <mxCell id="P3jRsYUMKIRg7UYWmszn-18" value="" style="rounded=0;whiteSpace=wrap;html=1;" parent="1" vertex="1">
          <mxGeometry x="100" y="300" width="970" height="530" as="geometry" />
        </mxCell>
        <mxCell id="P3jRsYUMKIRg7UYWmszn-21" value="&lt;font style=&quot;font-size: 24px;&quot;&gt;Web服务&lt;/font&gt;" style="text;html=1;strokeColor=none;fillColor=none;align=center;verticalAlign=middle;whiteSpace=wrap;rounded=0;" parent="1" vertex="1">
          <mxGeometry y="540" width="100" height="30" as="geometry" />
        </mxCell>
        <mxCell id="P3jRsYUMKIRg7UYWmszn-39" value="" style="rounded=0;whiteSpace=wrap;html=1;fillColor=#d5e8d4;strokeColor=#82b366;" parent="1" vertex="1">
          <mxGeometry x="120" y="310" width="540" height="230" as="geometry" />
        </mxCell>
        <mxCell id="P3jRsYUMKIRg7UYWmszn-40" value="&lt;font style=&quot;font-size: 24px;&quot;&gt;微信分销&lt;/font&gt;" style="text;html=1;strokeColor=none;fillColor=none;align=center;verticalAlign=middle;whiteSpace=wrap;rounded=0;" parent="1" vertex="1">
          <mxGeometry x="333.75" y="310" width="112.5" height="30" as="geometry" />
        </mxCell>
        <mxCell id="P3jRsYUMKIRg7UYWmszn-41" value="" style="rounded=0;whiteSpace=wrap;html=1;" parent="1" vertex="1">
          <mxGeometry x="132.5" y="347" width="127.5" height="183" as="geometry" />
        </mxCell>
        <mxCell id="P3jRsYUMKIRg7UYWmszn-42" value="&lt;font style=&quot;font-size: 18px;&quot;&gt;书城&lt;/font&gt;" style="text;html=1;strokeColor=none;fillColor=none;align=center;verticalAlign=middle;whiteSpace=wrap;rounded=0;" parent="1" vertex="1">
          <mxGeometry x="161.25" y="345" width="60" height="30" as="geometry" />
        </mxCell>
        <mxCell id="P3jRsYUMKIRg7UYWmszn-44" value="&lt;font style=&quot;font-size: 18px;&quot;&gt;首页&lt;/font&gt;" style="rounded=1;whiteSpace=wrap;html=1;" parent="1" vertex="1">
          <mxGeometry x="145.25" y="380" width="90" height="25" as="geometry" />
        </mxCell>
        <mxCell id="P3jRsYUMKIRg7UYWmszn-45" value="&lt;font style=&quot;font-size: 18px;&quot;&gt;排行榜&lt;/font&gt;" style="rounded=1;whiteSpace=wrap;html=1;" parent="1" vertex="1">
          <mxGeometry x="146.25" y="418.5" width="90" height="25" as="geometry" />
        </mxCell>
        <mxCell id="P3jRsYUMKIRg7UYWmszn-46" value="&lt;font style=&quot;font-size: 18px;&quot;&gt;推荐&lt;/font&gt;" style="rounded=1;whiteSpace=wrap;html=1;" parent="1" vertex="1">
          <mxGeometry x="145.25" y="455" width="90" height="25" as="geometry" />
        </mxCell>
        <mxCell id="P3jRsYUMKIRg7UYWmszn-47" value="&lt;font style=&quot;font-size: 18px;&quot;&gt;轮播图、弹窗&lt;/font&gt;" style="rounded=1;whiteSpace=wrap;html=1;" parent="1" vertex="1">
          <mxGeometry x="139.38" y="485.75" width="113.75" height="40" as="geometry" />
        </mxCell>
        <mxCell id="P3jRsYUMKIRg7UYWmszn-48" value="" style="rounded=0;whiteSpace=wrap;html=1;" parent="1" vertex="1">
          <mxGeometry x="272.5" y="347" width="117.5" height="183" as="geometry" />
        </mxCell>
        <mxCell id="P3jRsYUMKIRg7UYWmszn-49" value="&lt;font style=&quot;font-size: 18px;&quot;&gt;书籍&lt;/font&gt;" style="text;html=1;strokeColor=none;fillColor=none;align=center;verticalAlign=middle;whiteSpace=wrap;rounded=0;" parent="1" vertex="1">
          <mxGeometry x="301.25" y="347.5" width="60" height="30" as="geometry" />
        </mxCell>
        <mxCell id="P3jRsYUMKIRg7UYWmszn-50" value="&lt;font style=&quot;font-size: 18px;&quot;&gt;阅读页&lt;/font&gt;" style="rounded=1;whiteSpace=wrap;html=1;" parent="1" vertex="1">
          <mxGeometry x="286.25" y="377.5" width="90" height="25" as="geometry" />
        </mxCell>
        <mxCell id="P3jRsYUMKIRg7UYWmszn-51" value="&lt;font style=&quot;font-size: 18px;&quot;&gt;书、章信息&lt;/font&gt;" style="rounded=1;whiteSpace=wrap;html=1;" parent="1" vertex="1">
          <mxGeometry x="286.25" y="413.5" width="93.75" height="30" as="geometry" />
        </mxCell>
        <mxCell id="P3jRsYUMKIRg7UYWmszn-53" value="&lt;font style=&quot;font-size: 18px;&quot;&gt;章节列表&lt;/font&gt;" style="rounded=1;whiteSpace=wrap;html=1;" parent="1" vertex="1">
          <mxGeometry x="286.25" y="455" width="90" height="25" as="geometry" />
        </mxCell>
        <mxCell id="P3jRsYUMKIRg7UYWmszn-54" value="&lt;font style=&quot;font-size: 18px;&quot;&gt;订阅&lt;/font&gt;" style="rounded=1;whiteSpace=wrap;html=1;" parent="1" vertex="1">
          <mxGeometry x="286.25" y="493.25" width="90" height="25" as="geometry" />
        </mxCell>
        <mxCell id="P3jRsYUMKIRg7UYWmszn-56" value="" style="rounded=0;whiteSpace=wrap;html=1;" parent="1" vertex="1">
          <mxGeometry x="415.5" y="347" width="114.5" height="133" as="geometry" />
        </mxCell>
        <mxCell id="P3jRsYUMKIRg7UYWmszn-57" value="&lt;font style=&quot;font-size: 18px;&quot;&gt;充值&lt;/font&gt;" style="text;html=1;strokeColor=none;fillColor=none;align=center;verticalAlign=middle;whiteSpace=wrap;rounded=0;" parent="1" vertex="1">
          <mxGeometry x="444.25" y="347.5" width="60" height="30" as="geometry" />
        </mxCell>
        <mxCell id="P3jRsYUMKIRg7UYWmszn-59" value="&lt;font style=&quot;font-size: 18px;&quot;&gt;充值档位&lt;/font&gt;" style="rounded=1;whiteSpace=wrap;html=1;" parent="1" vertex="1">
          <mxGeometry x="425.31" y="388.5" width="90" height="25" as="geometry" />
        </mxCell>
        <mxCell id="P3jRsYUMKIRg7UYWmszn-64" value="&lt;font style=&quot;font-size: 18px;&quot;&gt;下单&lt;/font&gt;" style="rounded=1;whiteSpace=wrap;html=1;" parent="1" vertex="1">
          <mxGeometry x="425.31" y="438.5" width="90" height="25" as="geometry" />
        </mxCell>
        <mxCell id="P3jRsYUMKIRg7UYWmszn-65" value="&lt;font style=&quot;font-size: 18px;&quot;&gt;书架&lt;/font&gt;" style="rounded=0;whiteSpace=wrap;html=1;" parent="1" vertex="1">
          <mxGeometry x="537.38" y="501.5" width="112.62" height="28.5" as="geometry" />
        </mxCell>
        <mxCell id="P3jRsYUMKIRg7UYWmszn-67" value="&lt;font style=&quot;font-size: 18px;&quot;&gt;阅读进度&lt;/font&gt;" style="rounded=0;whiteSpace=wrap;html=1;" parent="1" vertex="1">
          <mxGeometry x="414" y="501.5" width="112.62" height="28.5" as="geometry" />
        </mxCell>
        <mxCell id="P3jRsYUMKIRg7UYWmszn-69" value="" style="rounded=0;whiteSpace=wrap;html=1;" parent="1" vertex="1">
          <mxGeometry x="538.12" y="350" width="111.88" height="130" as="geometry" />
        </mxCell>
        <mxCell id="P3jRsYUMKIRg7UYWmszn-70" value="&lt;font style=&quot;font-size: 18px;&quot;&gt;用户&lt;/font&gt;" style="text;html=1;strokeColor=none;fillColor=none;align=center;verticalAlign=middle;whiteSpace=wrap;rounded=0;" parent="1" vertex="1">
          <mxGeometry x="564.06" y="350" width="60" height="30" as="geometry" />
        </mxCell>
        <mxCell id="P3jRsYUMKIRg7UYWmszn-71" value="&lt;font style=&quot;font-size: 18px;&quot;&gt;登录&lt;/font&gt;" style="rounded=1;whiteSpace=wrap;html=1;" parent="1" vertex="1">
          <mxGeometry x="549.75" y="388.5" width="90" height="25" as="geometry" />
        </mxCell>
        <mxCell id="P3jRsYUMKIRg7UYWmszn-72" value="&lt;font style=&quot;font-size: 18px;&quot;&gt;个人中心&lt;/font&gt;" style="rounded=1;whiteSpace=wrap;html=1;" parent="1" vertex="1">
          <mxGeometry x="551.31" y="438.5" width="90" height="25" as="geometry" />
        </mxCell>
        <mxCell id="P3jRsYUMKIRg7UYWmszn-73" value="" style="rounded=0;whiteSpace=wrap;html=1;fillColor=#d5e8d4;strokeColor=#82b366;" parent="1" vertex="1">
          <mxGeometry x="120" y="565" width="540" height="65" as="geometry" />
        </mxCell>
        <mxCell id="P3jRsYUMKIRg7UYWmszn-74" value="&lt;font style=&quot;font-size: 24px;&quot;&gt;快应用/小程序&lt;/font&gt;" style="text;html=1;strokeColor=none;fillColor=none;align=center;verticalAlign=middle;whiteSpace=wrap;rounded=0;" parent="1" vertex="1">
          <mxGeometry x="311.5" y="565" width="162.5" height="35" as="geometry" />
        </mxCell>
        <mxCell id="P3jRsYUMKIRg7UYWmszn-76" value="&lt;font style=&quot;font-size: 18px;&quot;&gt;书城&lt;/font&gt;" style="rounded=0;whiteSpace=wrap;html=1;" parent="1" vertex="1">
          <mxGeometry x="128" y="595" width="74" height="30" as="geometry" />
        </mxCell>
        <mxCell id="P3jRsYUMKIRg7UYWmszn-77" value="&lt;font style=&quot;font-size: 18px;&quot;&gt;书籍&lt;/font&gt;" style="rounded=0;whiteSpace=wrap;html=1;" parent="1" vertex="1">
          <mxGeometry x="221.25" y="595" width="74" height="30" as="geometry" />
        </mxCell>
        <mxCell id="P3jRsYUMKIRg7UYWmszn-78" value="&lt;font style=&quot;font-size: 18px;&quot;&gt;充值&lt;/font&gt;" style="rounded=0;whiteSpace=wrap;html=1;" parent="1" vertex="1">
          <mxGeometry x="310" y="595" width="74" height="30" as="geometry" />
        </mxCell>
        <mxCell id="P3jRsYUMKIRg7UYWmszn-79" value="&lt;font style=&quot;font-size: 18px;&quot;&gt;用户&lt;/font&gt;" style="rounded=0;whiteSpace=wrap;html=1;" parent="1" vertex="1">
          <mxGeometry x="400" y="595" width="74" height="30" as="geometry" />
        </mxCell>
        <mxCell id="P3jRsYUMKIRg7UYWmszn-80" value="&lt;font style=&quot;font-size: 18px;&quot;&gt;书架&lt;/font&gt;" style="rounded=0;whiteSpace=wrap;html=1;" parent="1" vertex="1">
          <mxGeometry x="490.06" y="595" width="74" height="30" as="geometry" />
        </mxCell>
        <mxCell id="P3jRsYUMKIRg7UYWmszn-81" value="&lt;font style=&quot;font-size: 18px;&quot;&gt;阅读进度&lt;/font&gt;" style="rounded=0;whiteSpace=wrap;html=1;" parent="1" vertex="1">
          <mxGeometry x="576" y="595" width="74" height="30" as="geometry" />
        </mxCell>
        <mxCell id="P3jRsYUMKIRg7UYWmszn-82" value="" style="rounded=0;whiteSpace=wrap;html=1;fillColor=#d5e8d4;strokeColor=#82b366;" parent="1" vertex="1">
          <mxGeometry x="120" y="645" width="540" height="65" as="geometry" />
        </mxCell>
        <mxCell id="P3jRsYUMKIRg7UYWmszn-83" value="&lt;font style=&quot;font-size: 18px;&quot;&gt;书城&lt;/font&gt;" style="rounded=0;whiteSpace=wrap;html=1;" parent="1" vertex="1">
          <mxGeometry x="128" y="675" width="74" height="30" as="geometry" />
        </mxCell>
        <mxCell id="P3jRsYUMKIRg7UYWmszn-84" value="&lt;font style=&quot;font-size: 18px;&quot;&gt;书籍&lt;/font&gt;" style="rounded=0;whiteSpace=wrap;html=1;" parent="1" vertex="1">
          <mxGeometry x="221.25" y="675" width="74" height="30" as="geometry" />
        </mxCell>
        <mxCell id="P3jRsYUMKIRg7UYWmszn-85" value="&lt;font style=&quot;font-size: 18px;&quot;&gt;充值&lt;/font&gt;" style="rounded=0;whiteSpace=wrap;html=1;" parent="1" vertex="1">
          <mxGeometry x="310" y="675" width="74" height="30" as="geometry" />
        </mxCell>
        <mxCell id="P3jRsYUMKIRg7UYWmszn-86" value="&lt;font style=&quot;font-size: 18px;&quot;&gt;用户&lt;/font&gt;" style="rounded=0;whiteSpace=wrap;html=1;" parent="1" vertex="1">
          <mxGeometry x="400" y="675" width="74" height="30" as="geometry" />
        </mxCell>
        <mxCell id="P3jRsYUMKIRg7UYWmszn-87" value="&lt;font style=&quot;font-size: 18px;&quot;&gt;书架&lt;/font&gt;" style="rounded=0;whiteSpace=wrap;html=1;" parent="1" vertex="1">
          <mxGeometry x="490.06" y="675" width="74" height="30" as="geometry" />
        </mxCell>
        <mxCell id="P3jRsYUMKIRg7UYWmszn-88" value="&lt;font style=&quot;font-size: 18px;&quot;&gt;阅读进度&lt;/font&gt;" style="rounded=0;whiteSpace=wrap;html=1;" parent="1" vertex="1">
          <mxGeometry x="576" y="672.5" width="74" height="35" as="geometry" />
        </mxCell>
        <mxCell id="P3jRsYUMKIRg7UYWmszn-89" value="&lt;font style=&quot;font-size: 24px;&quot;&gt;短剧&lt;/font&gt;" style="text;html=1;strokeColor=none;fillColor=none;align=center;verticalAlign=middle;whiteSpace=wrap;rounded=0;" parent="1" vertex="1">
          <mxGeometry x="345" y="645" width="90" height="30" as="geometry" />
        </mxCell>
        <mxCell id="P3jRsYUMKIRg7UYWmszn-90" value="" style="rounded=0;whiteSpace=wrap;html=1;fillColor=#d5e8d4;strokeColor=#82b366;" parent="1" vertex="1">
          <mxGeometry x="120" y="730" width="540" height="65" as="geometry" />
        </mxCell>
        <mxCell id="P3jRsYUMKIRg7UYWmszn-91" value="&lt;font style=&quot;font-size: 18px;&quot;&gt;书城&lt;/font&gt;" style="rounded=0;whiteSpace=wrap;html=1;" parent="1" vertex="1">
          <mxGeometry x="128" y="760" width="74" height="30" as="geometry" />
        </mxCell>
        <mxCell id="P3jRsYUMKIRg7UYWmszn-92" value="&lt;font style=&quot;font-size: 18px;&quot;&gt;书籍&lt;/font&gt;" style="rounded=0;whiteSpace=wrap;html=1;" parent="1" vertex="1">
          <mxGeometry x="221.25" y="760" width="74" height="30" as="geometry" />
        </mxCell>
        <mxCell id="P3jRsYUMKIRg7UYWmszn-93" value="&lt;font style=&quot;font-size: 18px;&quot;&gt;充值&lt;/font&gt;" style="rounded=0;whiteSpace=wrap;html=1;" parent="1" vertex="1">
          <mxGeometry x="310" y="760" width="74" height="30" as="geometry" />
        </mxCell>
        <mxCell id="P3jRsYUMKIRg7UYWmszn-94" value="&lt;font style=&quot;font-size: 18px;&quot;&gt;用户&lt;/font&gt;" style="rounded=0;whiteSpace=wrap;html=1;" parent="1" vertex="1">
          <mxGeometry x="400" y="760" width="74" height="30" as="geometry" />
        </mxCell>
        <mxCell id="P3jRsYUMKIRg7UYWmszn-95" value="&lt;font style=&quot;font-size: 18px;&quot;&gt;书架&lt;/font&gt;" style="rounded=0;whiteSpace=wrap;html=1;" parent="1" vertex="1">
          <mxGeometry x="490.06" y="760" width="74" height="30" as="geometry" />
        </mxCell>
        <mxCell id="P3jRsYUMKIRg7UYWmszn-97" value="&lt;font style=&quot;font-size: 24px;&quot;&gt;仓雄&lt;/font&gt;" style="text;html=1;strokeColor=none;fillColor=none;align=center;verticalAlign=middle;whiteSpace=wrap;rounded=0;" parent="1" vertex="1">
          <mxGeometry x="345" y="730" width="90" height="30" as="geometry" />
        </mxCell>
        <mxCell id="P3jRsYUMKIRg7UYWmszn-103" value="" style="rounded=0;whiteSpace=wrap;html=1;fillColor=#fff2cc;strokeColor=#d6b656;" parent="1" vertex="1">
          <mxGeometry x="890" y="312.5" width="160" height="228.5" as="geometry" />
        </mxCell>
        <mxCell id="P3jRsYUMKIRg7UYWmszn-104" value="" style="rounded=0;whiteSpace=wrap;html=1;fillColor=#fff2cc;strokeColor=#d6b656;" parent="1" vertex="1">
          <mxGeometry x="680" y="310" width="190" height="485" as="geometry" />
        </mxCell>
        <mxCell id="P3jRsYUMKIRg7UYWmszn-107" value="&lt;font style=&quot;font-size: 24px;&quot;&gt;投放&lt;/font&gt;" style="text;html=1;strokeColor=none;fillColor=none;align=center;verticalAlign=middle;whiteSpace=wrap;rounded=0;" parent="1" vertex="1">
          <mxGeometry x="935" y="320" width="70" height="30" as="geometry" />
        </mxCell>
        <mxCell id="P3jRsYUMKIRg7UYWmszn-108" value="&lt;font style=&quot;font-size: 18px;&quot;&gt;归因&lt;/font&gt;" style="rounded=1;whiteSpace=wrap;html=1;" parent="1" vertex="1">
          <mxGeometry x="910" y="377.5" width="120" height="41.5" as="geometry" />
        </mxCell>
        <mxCell id="P3jRsYUMKIRg7UYWmszn-109" value="&lt;font style=&quot;font-size: 18px;&quot;&gt;回传&lt;/font&gt;" style="rounded=1;whiteSpace=wrap;html=1;" parent="1" vertex="1">
          <mxGeometry x="910" y="463.5" width="120" height="41.5" as="geometry" />
        </mxCell>
        <mxCell id="P3jRsYUMKIRg7UYWmszn-124" value="&lt;font style=&quot;font-size: 24px;&quot;&gt;活动&lt;/font&gt;" style="rounded=0;whiteSpace=wrap;html=1;fillColor=#d5e8d4;strokeColor=#82b366;" parent="1" vertex="1">
          <mxGeometry x="890" y="570" width="160" height="228.5" as="geometry" />
        </mxCell>
        <mxCell id="P3jRsYUMKIRg7UYWmszn-128" value="&lt;font style=&quot;font-size: 24px;&quot;&gt;商户&lt;/font&gt;" style="rounded=1;whiteSpace=wrap;html=1;" parent="1" vertex="1">
          <mxGeometry x="730" y="57.5" width="230" height="65" as="geometry" />
        </mxCell>
        <mxCell id="elYfRWdLJCSy1WfxLkB--20" value="" style="rounded=0;whiteSpace=wrap;html=1;fontSize=24;fillColor=#e1d5e7;strokeColor=#9673a6;" parent="1" vertex="1">
          <mxGeometry x="100" y="920" width="560" height="70" as="geometry" />
        </mxCell>
        <mxCell id="elYfRWdLJCSy1WfxLkB--21" value="&lt;font style=&quot;font-size: 24px;&quot;&gt;基础服务&lt;/font&gt;" style="text;html=1;strokeColor=none;fillColor=none;align=center;verticalAlign=middle;whiteSpace=wrap;rounded=0;" parent="1" vertex="1">
          <mxGeometry y="940" width="100" height="40" as="geometry" />
        </mxCell>
        <mxCell id="elYfRWdLJCSy1WfxLkB--23" value="租户服务" style="rounded=1;whiteSpace=wrap;html=1;fontSize=18;" parent="1" vertex="1">
          <mxGeometry x="120" y="935" width="120" height="45" as="geometry" />
        </mxCell>
        <mxCell id="elYfRWdLJCSy1WfxLkB--28" value="用户标签服务" style="rounded=1;whiteSpace=wrap;html=1;fontSize=18;" parent="1" vertex="1">
          <mxGeometry x="266.25" y="935" width="123.75" height="45" as="geometry" />
        </mxCell>
        <mxCell id="elYfRWdLJCSy1WfxLkB--30" value="微信消息通道服务" style="rounded=1;whiteSpace=wrap;html=1;fontSize=18;" parent="1" vertex="1">
          <mxGeometry x="411.31" y="932.5" width="152" height="47.5" as="geometry" />
        </mxCell>
        <mxCell id="elYfRWdLJCSy1WfxLkB--32" value="中台（用户计费、智能、数据）" style="rounded=0;whiteSpace=wrap;html=1;fontSize=24;fillColor=#e1d5e7;strokeColor=#9673a6;" parent="1" vertex="1">
          <mxGeometry x="671" y="921.25" width="400" height="67.5" as="geometry" />
        </mxCell>
        <mxCell id="elYfRWdLJCSy1WfxLkB--35" value="C端" style="rounded=0;whiteSpace=wrap;html=1;fontSize=24;fillColor=#d5e8d4;strokeColor=#82b366;" parent="1" vertex="1">
          <mxGeometry x="20" y="579.25" width="60" height="36.5" as="geometry" />
        </mxCell>
        <mxCell id="elYfRWdLJCSy1WfxLkB--37" value="B端" style="rounded=0;whiteSpace=wrap;html=1;fontSize=24;fillColor=#fff2cc;strokeColor=#d6b656;" parent="1" vertex="1">
          <mxGeometry x="20" y="641.75" width="60" height="36.5" as="geometry" />
        </mxCell>
        <mxCell id="cNL9EHBi71QVaALrMv2o-1" value="" style="rounded=0;whiteSpace=wrap;html=1;fillColor=#FFF2CC;strokeColor=#000000;" parent="1" vertex="1">
          <mxGeometry x="690" y="350" width="170" height="110" as="geometry" />
        </mxCell>
        <mxCell id="cNL9EHBi71QVaALrMv2o-3" value="&lt;span style=&quot;font-size: 18px;&quot;&gt;推广&lt;/span&gt;" style="text;html=1;strokeColor=none;fillColor=none;align=center;verticalAlign=middle;whiteSpace=wrap;rounded=0;fontSize=18;" parent="1" vertex="1">
          <mxGeometry x="693.5" y="347" width="162.5" height="35" as="geometry" />
        </mxCell>
        <mxCell id="cNL9EHBi71QVaALrMv2o-6" value="&lt;font style=&quot;font-size: 14px;&quot;&gt;回传配置&lt;/font&gt;" style="rounded=0;whiteSpace=wrap;html=1;fontSize=14;" parent="1" vertex="1">
          <mxGeometry x="696" y="419.5" width="74" height="30" as="geometry" />
        </mxCell>
        <mxCell id="cNL9EHBi71QVaALrMv2o-14" value="" style="rounded=0;whiteSpace=wrap;html=1;fillColor=#FFF2CC;strokeColor=#000000;" parent="1" vertex="1">
          <mxGeometry x="689.25" y="467.25" width="170.75" height="100.75" as="geometry" />
        </mxCell>
        <mxCell id="cNL9EHBi71QVaALrMv2o-16" value="&lt;span style=&quot;font-size: 24px;&quot;&gt;商户后台&lt;/span&gt;" style="text;html=1;strokeColor=none;fillColor=none;align=center;verticalAlign=middle;whiteSpace=wrap;rounded=0;" parent="1" vertex="1">
          <mxGeometry x="710" y="320.5" width="119.75" height="29.5" as="geometry" />
        </mxCell>
        <mxCell id="cNL9EHBi71QVaALrMv2o-17" value="&lt;font style=&quot;font-size: 14px;&quot;&gt;链接&lt;/font&gt;" style="rounded=0;whiteSpace=wrap;html=1;fontSize=14;" parent="1" vertex="1">
          <mxGeometry x="696" y="380.5" width="74" height="30" as="geometry" />
        </mxCell>
        <mxCell id="cNL9EHBi71QVaALrMv2o-18" value="&lt;font style=&quot;font-size: 14px;&quot;&gt;优惠券&lt;/font&gt;" style="rounded=0;whiteSpace=wrap;html=1;fontSize=14;" parent="1" vertex="1">
          <mxGeometry x="696" y="531" width="74" height="30" as="geometry" />
        </mxCell>
        <mxCell id="cNL9EHBi71QVaALrMv2o-19" value="&lt;span style=&quot;font-size: 18px;&quot;&gt;运营&lt;/span&gt;" style="text;html=1;strokeColor=none;fillColor=none;align=center;verticalAlign=middle;whiteSpace=wrap;rounded=0;fontSize=18;" parent="1" vertex="1">
          <mxGeometry x="689.5" y="462.38" width="162.5" height="35" as="geometry" />
        </mxCell>
        <mxCell id="cNL9EHBi71QVaALrMv2o-20" value="&lt;font style=&quot;font-size: 14px;&quot;&gt;书城配置&lt;/font&gt;" style="rounded=0;whiteSpace=wrap;html=1;fontSize=14;" parent="1" vertex="1">
          <mxGeometry x="696" y="494.5" width="74" height="30" as="geometry" />
        </mxCell>
        <mxCell id="cNL9EHBi71QVaALrMv2o-22" value="消息推送" style="rounded=0;whiteSpace=wrap;html=1;fontSize=14;" parent="1" vertex="1">
          <mxGeometry x="778" y="420" width="74" height="30" as="geometry" />
        </mxCell>
        <mxCell id="cNL9EHBi71QVaALrMv2o-25" value="" style="rounded=0;whiteSpace=wrap;html=1;fillColor=#FFF2CC;strokeColor=#000000;" parent="1" vertex="1">
          <mxGeometry x="690" y="575" width="170" height="98" as="geometry" />
        </mxCell>
        <mxCell id="cNL9EHBi71QVaALrMv2o-26" value="" style="rounded=0;whiteSpace=wrap;html=1;fillColor=#FFF2CC;strokeColor=#000000;" parent="1" vertex="1">
          <mxGeometry x="690" y="680" width="170" height="110" as="geometry" />
        </mxCell>
        <mxCell id="cNL9EHBi71QVaALrMv2o-27" value="&lt;font style=&quot;font-size: 18px;&quot;&gt;投放&amp;amp;授权&lt;/font&gt;" style="text;html=1;strokeColor=none;fillColor=none;align=center;verticalAlign=middle;whiteSpace=wrap;rounded=0;fontSize=18;" parent="1" vertex="1">
          <mxGeometry x="721.19" y="685" width="99.12" height="20" as="geometry" />
        </mxCell>
        <mxCell id="cNL9EHBi71QVaALrMv2o-31" value="&lt;font style=&quot;font-size: 18px;&quot;&gt;数据看板&lt;/font&gt;" style="text;html=1;strokeColor=none;fillColor=none;align=center;verticalAlign=middle;whiteSpace=wrap;rounded=0;fontSize=18;" parent="1" vertex="1">
          <mxGeometry x="690" y="571" width="170" height="35" as="geometry" />
        </mxCell>
        <mxCell id="cNL9EHBi71QVaALrMv2o-32" value="用户" style="rounded=0;whiteSpace=wrap;html=1;fontSize=14;" parent="1" vertex="1">
          <mxGeometry x="696" y="602" width="74" height="30" as="geometry" />
        </mxCell>
        <mxCell id="cNL9EHBi71QVaALrMv2o-33" value="订单" style="rounded=0;whiteSpace=wrap;html=1;fontSize=14;" parent="1" vertex="1">
          <mxGeometry x="696" y="637.25" width="74" height="30" as="geometry" />
        </mxCell>
        <mxCell id="cNL9EHBi71QVaALrMv2o-34" value="充值" style="rounded=0;whiteSpace=wrap;html=1;fontSize=14;" parent="1" vertex="1">
          <mxGeometry x="774" y="602" width="74" height="30" as="geometry" />
        </mxCell>
        <mxCell id="cNL9EHBi71QVaALrMv2o-35" value="活动数据" style="rounded=0;whiteSpace=wrap;html=1;fontSize=14;" parent="1" vertex="1">
          <mxGeometry x="774" y="637.25" width="74" height="30" as="geometry" />
        </mxCell>
        <mxCell id="cNL9EHBi71QVaALrMv2o-44" value="&lt;font style=&quot;font-size: 14px;&quot;&gt;广告&lt;/font&gt;" style="rounded=0;whiteSpace=wrap;html=1;fontSize=14;" parent="1" vertex="1">
          <mxGeometry x="779" y="380.5" width="74" height="30" as="geometry" />
        </mxCell>
        <mxCell id="cNL9EHBi71QVaALrMv2o-45" value="客服" style="rounded=0;whiteSpace=wrap;html=1;fontSize=14;" parent="1" vertex="1">
          <mxGeometry x="774" y="531" width="74" height="30" as="geometry" />
        </mxCell>
        <mxCell id="cNL9EHBi71QVaALrMv2o-47" value="MP" style="rounded=0;whiteSpace=wrap;html=1;fontSize=14;" parent="1" vertex="1">
          <mxGeometry x="696" y="710" width="74" height="30" as="geometry" />
        </mxCell>
        <mxCell id="cNL9EHBi71QVaALrMv2o-49" value="巨量" style="rounded=0;whiteSpace=wrap;html=1;fontSize=14;" parent="1" vertex="1">
          <mxGeometry x="778" y="710" width="74" height="30" as="geometry" />
        </mxCell>
        <mxCell id="cNL9EHBi71QVaALrMv2o-50" value="广点通" style="rounded=0;whiteSpace=wrap;html=1;fontSize=14;" parent="1" vertex="1">
          <mxGeometry x="696" y="747.5" width="74" height="30" as="geometry" />
        </mxCell>
        <mxCell id="cNL9EHBi71QVaALrMv2o-51" value="企微" style="rounded=0;whiteSpace=wrap;html=1;fontSize=14;" parent="1" vertex="1">
          <mxGeometry x="779" y="747.5" width="74" height="30" as="geometry" />
        </mxCell>
        <mxCell id="cNL9EHBi71QVaALrMv2o-53" value="&lt;span style=&quot;font-size: 14px;&quot;&gt;充值档位&lt;/span&gt;" style="rounded=0;whiteSpace=wrap;html=1;fontSize=14;" parent="1" vertex="1">
          <mxGeometry x="774" y="494.5" width="74" height="30" as="geometry" />
        </mxCell>
        <mxCell id="aJzPHlp5MDxAh6HLsRcm-1" value="&lt;font style=&quot;font-size: 18px;&quot;&gt;阅读进度&lt;/font&gt;" style="rounded=0;whiteSpace=wrap;html=1;" parent="1" vertex="1">
          <mxGeometry x="576" y="755" width="74" height="35" as="geometry" />
        </mxCell>
        <mxCell id="urlEHCIApxvy9QySj8jp-1" value="" style="rounded=0;whiteSpace=wrap;html=1;fontSize=18;fillColor=#ffe6cc;strokeColor=#d79b00;" parent="1" vertex="1">
          <mxGeometry x="100" y="840" width="560" height="70" as="geometry" />
        </mxCell>
        <mxCell id="urlEHCIApxvy9QySj8jp-2" value="&lt;font style=&quot;font-size: 24px;&quot;&gt;业务服务&lt;/font&gt;" style="text;html=1;strokeColor=none;fillColor=none;align=center;verticalAlign=middle;whiteSpace=wrap;rounded=0;" parent="1" vertex="1">
          <mxGeometry y="860" width="100" height="30" as="geometry" />
        </mxCell>
        <mxCell id="urlEHCIApxvy9QySj8jp-4" value="充值档位服务" style="rounded=1;whiteSpace=wrap;html=1;fontSize=18;" parent="1" vertex="1">
          <mxGeometry x="134.25" y="860" width="112" height="30" as="geometry" />
        </mxCell>
        <mxCell id="urlEHCIApxvy9QySj8jp-6" value="包年服务" style="rounded=1;whiteSpace=wrap;html=1;fontSize=18;" parent="1" vertex="1">
          <mxGeometry x="481" y="860" width="112" height="30" as="geometry" />
        </mxCell>
        <mxCell id="urlEHCIApxvy9QySj8jp-7" value="价格服务" style="rounded=1;whiteSpace=wrap;html=1;fontSize=18;" parent="1" vertex="1">
          <mxGeometry x="261" y="860" width="92" height="30" as="geometry" />
        </mxCell>
        <mxCell id="urlEHCIApxvy9QySj8jp-8" value="CMS 服务" style="rounded=1;whiteSpace=wrap;html=1;fontSize=18;" parent="1" vertex="1">
          <mxGeometry x="373.5" y="860" width="92" height="30" as="geometry" />
        </mxCell>
        <mxCell id="urlEHCIApxvy9QySj8jp-15" value="&lt;font style=&quot;font-size: 24px;&quot;&gt;通用平台业务服务&lt;/font&gt;" style="rounded=0;whiteSpace=wrap;html=1;fontSize=18;fillColor=#ffe6cc;strokeColor=#d79b00;" parent="1" vertex="1">
          <mxGeometry x="670" y="840" width="401" height="70" as="geometry" />
        </mxCell>
      </root>
    </mxGraphModel>
  </diagram>
  <diagram name="服务化" id="qiYkU8uw-nNdQtB3VIew">
    <mxGraphModel dx="2214" dy="1181" grid="1" gridSize="10" guides="1" tooltips="1" connect="1" arrows="1" fold="1" page="1" pageScale="1" pageWidth="827" pageHeight="1169" math="0" shadow="0">
      <root>
        <mxCell id="c6bKQEAfyQHRHTY0jHHv-0" />
        <mxCell id="c6bKQEAfyQHRHTY0jHHv-1" parent="c6bKQEAfyQHRHTY0jHHv-0" />
        <mxCell id="0jycYlJXcyQYSVbl3O99-6" value="" style="rounded=1;whiteSpace=wrap;html=1;shadow=1;strokeColor=#000000;fillColor=#FFFFFF;arcSize=10;" parent="c6bKQEAfyQHRHTY0jHHv-1" vertex="1">
          <mxGeometry x="12.37" y="210" width="1377.63" height="830" as="geometry" />
        </mxCell>
        <mxCell id="c6bKQEAfyQHRHTY0jHHv-2" value="" style="rounded=0;whiteSpace=wrap;html=1;fillColor=#dae8fc;strokeColor=#6c8ebf;" parent="c6bKQEAfyQHRHTY0jHHv-1" vertex="1">
          <mxGeometry x="165.25" y="40" width="1024.75" height="90" as="geometry" />
        </mxCell>
        <mxCell id="c6bKQEAfyQHRHTY0jHHv-3" value="&lt;font style=&quot;font-size: 24px;&quot;&gt;微信（公众号、小程序）&lt;/font&gt;" style="rounded=1;whiteSpace=wrap;html=1;" parent="c6bKQEAfyQHRHTY0jHHv-1" vertex="1">
          <mxGeometry x="185.25" y="60" width="270" height="60" as="geometry" />
        </mxCell>
        <mxCell id="c6bKQEAfyQHRHTY0jHHv-4" value="&lt;font style=&quot;font-size: 24px;&quot;&gt;移动App（快应用、仓雄）&lt;/font&gt;" style="rounded=1;whiteSpace=wrap;html=1;" parent="c6bKQEAfyQHRHTY0jHHv-1" vertex="1">
          <mxGeometry x="476.56" y="57.5" width="288.69" height="62.5" as="geometry" />
        </mxCell>
        <mxCell id="c6bKQEAfyQHRHTY0jHHv-5" value="&lt;font style=&quot;font-size: 24px;&quot;&gt;外部流量&lt;/font&gt;" style="text;html=1;strokeColor=none;fillColor=none;align=center;verticalAlign=middle;whiteSpace=wrap;rounded=0;" parent="c6bKQEAfyQHRHTY0jHHv-1" vertex="1">
          <mxGeometry x="30" y="70" width="100" height="50" as="geometry" />
        </mxCell>
        <mxCell id="c6bKQEAfyQHRHTY0jHHv-6" value="" style="rounded=0;whiteSpace=wrap;html=1;fillColor=#dae8fc;strokeColor=#6c8ebf;" parent="c6bKQEAfyQHRHTY0jHHv-1" vertex="1">
          <mxGeometry x="165.25" y="150" width="1024.75" height="50" as="geometry" />
        </mxCell>
        <mxCell id="c6bKQEAfyQHRHTY0jHHv-7" value="&lt;font style=&quot;font-size: 24px;&quot;&gt;接入层&lt;/font&gt;" style="text;html=1;strokeColor=none;fillColor=none;align=center;verticalAlign=middle;whiteSpace=wrap;rounded=0;" parent="c6bKQEAfyQHRHTY0jHHv-1" vertex="1">
          <mxGeometry x="40" y="160" width="80" height="30" as="geometry" />
        </mxCell>
        <mxCell id="c6bKQEAfyQHRHTY0jHHv-8" value="&lt;font style=&quot;font-size: 24px;&quot;&gt;TGW&lt;/font&gt;" style="rounded=1;whiteSpace=wrap;html=1;" parent="c6bKQEAfyQHRHTY0jHHv-1" vertex="1">
          <mxGeometry x="185.25" y="160" width="474.75" height="30" as="geometry" />
        </mxCell>
        <mxCell id="c6bKQEAfyQHRHTY0jHHv-76" value="&lt;font style=&quot;font-size: 24px;&quot;&gt;商户&lt;/font&gt;" style="rounded=1;whiteSpace=wrap;html=1;" parent="c6bKQEAfyQHRHTY0jHHv-1" vertex="1">
          <mxGeometry x="786.25" y="57.5" width="174.75" height="65" as="geometry" />
        </mxCell>
        <mxCell id="c6bKQEAfyQHRHTY0jHHv-78" value="&lt;font style=&quot;font-size: 24px;&quot;&gt;IAS&lt;/font&gt;" style="rounded=1;whiteSpace=wrap;html=1;" parent="c6bKQEAfyQHRHTY0jHHv-1" vertex="1">
          <mxGeometry x="700" y="160" width="456.94" height="30" as="geometry" />
        </mxCell>
        <mxCell id="nn-uD4x_4U4qaqi_6pep-24" value="" style="rounded=0;whiteSpace=wrap;html=1;fontSize=24;fillColor=#D5E8D4;strokeColor=#000000;" parent="c6bKQEAfyQHRHTY0jHHv-1" vertex="1">
          <mxGeometry x="165.25" y="230" width="1024.75" height="150" as="geometry" />
        </mxCell>
        <mxCell id="nn-uD4x_4U4qaqi_6pep-25" value="ywos_solution" style="text;html=1;strokeColor=none;fillColor=none;align=center;verticalAlign=middle;whiteSpace=wrap;rounded=0;fontSize=24;" parent="c6bKQEAfyQHRHTY0jHHv-1" vertex="1">
          <mxGeometry x="570.56" y="230" width="225.5" height="50" as="geometry" />
        </mxCell>
        <mxCell id="nn-uD4x_4U4qaqi_6pep-27" value="微信分销" style="rounded=1;whiteSpace=wrap;html=1;fontSize=24;" parent="c6bKQEAfyQHRHTY0jHHv-1" vertex="1">
          <mxGeometry x="176.19" y="290" width="154.75" height="55" as="geometry" />
        </mxCell>
        <mxCell id="PdRiUk4RQSPcqjOduxmv-2" value="仓雄" style="rounded=1;whiteSpace=wrap;html=1;fontSize=24;" parent="c6bKQEAfyQHRHTY0jHHv-1" vertex="1">
          <mxGeometry x="713.19" y="290" width="147" height="55" as="geometry" />
        </mxCell>
        <mxCell id="PdRiUk4RQSPcqjOduxmv-6" value="&lt;font style=&quot;font-size: 24px;&quot;&gt;业务层&lt;/font&gt;" style="text;html=1;strokeColor=none;fillColor=none;align=center;verticalAlign=middle;whiteSpace=wrap;rounded=0;" parent="c6bKQEAfyQHRHTY0jHHv-1" vertex="1">
          <mxGeometry x="5" y="245" width="150" height="120" as="geometry" />
        </mxCell>
        <mxCell id="zuSZlw6rPN9QqHsxY62Z-0" value="" style="rounded=0;whiteSpace=wrap;html=1;fillColor=#D5E8D4;strokeColor=#000000;" parent="c6bKQEAfyQHRHTY0jHHv-1" vertex="1">
          <mxGeometry x="165.25" y="450" width="844.75" height="410" as="geometry" />
        </mxCell>
        <mxCell id="wGJiEzaITAGu7arDHGnX-0" value="" style="shape=flexArrow;endArrow=classic;html=1;rounded=0;fontSize=24;" parent="c6bKQEAfyQHRHTY0jHHv-1" edge="1">
          <mxGeometry width="50" height="50" relative="1" as="geometry">
            <mxPoint x="686.4300000000001" y="390" as="sourcePoint" />
            <mxPoint x="686.1800000000001" y="440" as="targetPoint" />
          </mxGeometry>
        </mxCell>
        <mxCell id="gx-KTLuYfyt9SmKxYTQY-0" value="" style="rounded=0;whiteSpace=wrap;html=1;" parent="c6bKQEAfyQHRHTY0jHHv-1" vertex="1">
          <mxGeometry x="189.82" y="482" width="260.18" height="158" as="geometry" />
        </mxCell>
        <mxCell id="gx-KTLuYfyt9SmKxYTQY-1" value="&lt;font style=&quot;font-size: 24px;&quot;&gt;看书&lt;/font&gt;" style="text;html=1;strokeColor=none;fillColor=none;align=center;verticalAlign=middle;whiteSpace=wrap;rounded=0;" parent="c6bKQEAfyQHRHTY0jHHv-1" vertex="1">
          <mxGeometry x="285.76" y="505" width="60" height="30" as="geometry" />
        </mxCell>
        <mxCell id="gx-KTLuYfyt9SmKxYTQY-3" value="&lt;font style=&quot;font-size: 24px;&quot;&gt;动态卡点服务&lt;/font&gt;" style="rounded=1;whiteSpace=wrap;html=1;fontSize=18;fillColor=#dae8fc;strokeColor=#6c8ebf;" parent="c6bKQEAfyQHRHTY0jHHv-1" vertex="1">
          <mxGeometry x="231.82" y="546" width="162.13" height="30" as="geometry" />
        </mxCell>
        <mxCell id="gx-KTLuYfyt9SmKxYTQY-4" value="&lt;font style=&quot;font-size: 24px;&quot;&gt;价格服务&lt;/font&gt;" style="rounded=1;whiteSpace=wrap;html=1;fontSize=18;fillColor=#CCFFCC;strokeColor=#6c8ebf;" parent="c6bKQEAfyQHRHTY0jHHv-1" vertex="1">
          <mxGeometry x="231.75" y="591" width="162.25" height="30" as="geometry" />
        </mxCell>
        <mxCell id="gx-KTLuYfyt9SmKxYTQY-7" value="" style="rounded=0;whiteSpace=wrap;html=1;" parent="c6bKQEAfyQHRHTY0jHHv-1" vertex="1">
          <mxGeometry x="189.82" y="652.5" width="260.18" height="167.5" as="geometry" />
        </mxCell>
        <mxCell id="gx-KTLuYfyt9SmKxYTQY-10" value="&lt;font style=&quot;font-size: 24px;&quot;&gt;服务层&lt;/font&gt;" style="text;html=1;strokeColor=none;fillColor=none;align=center;verticalAlign=middle;whiteSpace=wrap;rounded=0;" parent="c6bKQEAfyQHRHTY0jHHv-1" vertex="1">
          <mxGeometry x="5" y="546" width="150" height="120" as="geometry" />
        </mxCell>
        <mxCell id="gx-KTLuYfyt9SmKxYTQY-12" value="" style="rounded=0;whiteSpace=wrap;html=1;" parent="c6bKQEAfyQHRHTY0jHHv-1" vertex="1">
          <mxGeometry x="476.56" y="497.5" width="250.37" height="325" as="geometry" />
        </mxCell>
        <mxCell id="gx-KTLuYfyt9SmKxYTQY-13" value="" style="rounded=0;whiteSpace=wrap;html=1;" parent="c6bKQEAfyQHRHTY0jHHv-1" vertex="1">
          <mxGeometry x="758.63" y="700.5" width="231.37" height="129.5" as="geometry" />
        </mxCell>
        <mxCell id="gx-KTLuYfyt9SmKxYTQY-16" value="&lt;span style=&quot;font-size: 24px;&quot;&gt;找书&lt;/span&gt;" style="text;html=1;strokeColor=none;fillColor=none;align=center;verticalAlign=middle;whiteSpace=wrap;rounded=0;" parent="c6bKQEAfyQHRHTY0jHHv-1" vertex="1">
          <mxGeometry x="285.76" y="665" width="60" height="30" as="geometry" />
        </mxCell>
        <mxCell id="gx-KTLuYfyt9SmKxYTQY-17" value="&lt;span style=&quot;font-size: 24px;&quot;&gt;触达/运营&lt;/span&gt;" style="text;html=1;strokeColor=none;fillColor=none;align=center;verticalAlign=middle;whiteSpace=wrap;rounded=0;" parent="c6bKQEAfyQHRHTY0jHHv-1" vertex="1">
          <mxGeometry x="558.6199999999999" y="508.5" width="109.44" height="30" as="geometry" />
        </mxCell>
        <mxCell id="gx-KTLuYfyt9SmKxYTQY-19" value="&lt;span style=&quot;font-size: 24px;&quot;&gt;投放&lt;/span&gt;" style="text;html=1;strokeColor=none;fillColor=none;align=center;verticalAlign=middle;whiteSpace=wrap;rounded=0;" parent="c6bKQEAfyQHRHTY0jHHv-1" vertex="1">
          <mxGeometry x="841.51" y="703.5" width="60" height="30" as="geometry" />
        </mxCell>
        <mxCell id="gx-KTLuYfyt9SmKxYTQY-20" value="&lt;font style=&quot;font-size: 24px;&quot;&gt;cms服务&lt;/font&gt;" style="rounded=1;whiteSpace=wrap;html=1;fontSize=18;fillColor=#fff2cc;strokeColor=#d6b656;" parent="c6bKQEAfyQHRHTY0jHHv-1" vertex="1">
          <mxGeometry x="235.5" y="707" width="154.75" height="30" as="geometry" />
        </mxCell>
        <mxCell id="gx-KTLuYfyt9SmKxYTQY-21" value="&lt;font style=&quot;font-size: 24px;&quot;&gt;书推荐服务&lt;/font&gt;" style="rounded=1;whiteSpace=wrap;html=1;fontSize=18;fillColor=#FFFFFF;strokeColor=#d6b656;" parent="c6bKQEAfyQHRHTY0jHHv-1" vertex="1">
          <mxGeometry x="235.5" y="759.5" width="154.75" height="30" as="geometry" />
        </mxCell>
        <mxCell id="gx-KTLuYfyt9SmKxYTQY-22" value="&lt;font style=&quot;font-size: 24px;&quot;&gt;包年服务&lt;/font&gt;" style="rounded=1;whiteSpace=wrap;html=1;fontSize=18;fillColor=#CCFFCC;strokeColor=#000000;" parent="c6bKQEAfyQHRHTY0jHHv-1" vertex="1">
          <mxGeometry x="519.4300000000001" y="547.5" width="162.25" height="30" as="geometry" />
        </mxCell>
        <mxCell id="gx-KTLuYfyt9SmKxYTQY-23" value="&lt;font style=&quot;font-size: 24px;&quot;&gt;签到服务&lt;/font&gt;" style="rounded=1;whiteSpace=wrap;html=1;fontSize=18;fillColor=#fff2cc;strokeColor=#d6b656;" parent="c6bKQEAfyQHRHTY0jHHv-1" vertex="1">
          <mxGeometry x="523.9300000000001" y="681" width="162.25" height="30" as="geometry" />
        </mxCell>
        <mxCell id="gx-KTLuYfyt9SmKxYTQY-24" value="&lt;span style=&quot;font-size: 24px;&quot;&gt;微信消息服务&lt;/span&gt;" style="rounded=1;whiteSpace=wrap;html=1;fontSize=18;fillColor=#fff2cc;strokeColor=#d6b656;" parent="c6bKQEAfyQHRHTY0jHHv-1" vertex="1">
          <mxGeometry x="520.6200000000001" y="592.5" width="162.25" height="30" as="geometry" />
        </mxCell>
        <mxCell id="ScekLoxdn7fWGLo1ed0e-0" value="ywos_service" style="text;html=1;strokeColor=none;fillColor=none;align=center;verticalAlign=middle;whiteSpace=wrap;rounded=0;fontSize=24;" parent="c6bKQEAfyQHRHTY0jHHv-1" vertex="1">
          <mxGeometry x="572.38" y="447.5" width="225.5" height="50" as="geometry" />
        </mxCell>
        <mxCell id="ScekLoxdn7fWGLo1ed0e-1" value="&lt;font style=&quot;font-size: 24px;&quot;&gt;归因服务&lt;/font&gt;" style="rounded=1;whiteSpace=wrap;html=1;fontSize=18;fillColor=#fff2cc;strokeColor=#d6b656;" parent="c6bKQEAfyQHRHTY0jHHv-1" vertex="1">
          <mxGeometry x="792.4999999999999" y="783.5" width="162.25" height="30" as="geometry" />
        </mxCell>
        <mxCell id="ScekLoxdn7fWGLo1ed0e-2" value="已上线" style="rounded=1;whiteSpace=wrap;html=1;fontSize=24;fillColor=#CCFFCC;strokeColor=#6c8ebf;" parent="c6bKQEAfyQHRHTY0jHHv-1" vertex="1">
          <mxGeometry x="17.62" y="650" width="124.75" height="40" as="geometry" />
        </mxCell>
        <mxCell id="ScekLoxdn7fWGLo1ed0e-3" value="规划中" style="rounded=1;whiteSpace=wrap;html=1;fontSize=24;fillColor=#fff2cc;strokeColor=#d6b656;" parent="c6bKQEAfyQHRHTY0jHHv-1" vertex="1">
          <mxGeometry x="17.62" y="700.87" width="124.75" height="39.13" as="geometry" />
        </mxCell>
        <mxCell id="ScekLoxdn7fWGLo1ed0e-4" value="待规划" style="rounded=1;whiteSpace=wrap;html=1;fontSize=24;fillColor=#FFFFFF;strokeColor=#b85450;" parent="c6bKQEAfyQHRHTY0jHHv-1" vertex="1">
          <mxGeometry x="17.62" y="750" width="124.75" height="40" as="geometry" />
        </mxCell>
        <mxCell id="ScekLoxdn7fWGLo1ed0e-6" value="" style="rounded=0;whiteSpace=wrap;html=1;" parent="c6bKQEAfyQHRHTY0jHHv-1" vertex="1">
          <mxGeometry x="758.63" y="497.5" width="231.37" height="192.5" as="geometry" />
        </mxCell>
        <mxCell id="ScekLoxdn7fWGLo1ed0e-9" value="&lt;span style=&quot;font-size: 24px;&quot;&gt;充值&lt;/span&gt;" style="text;html=1;strokeColor=none;fillColor=none;align=center;verticalAlign=middle;whiteSpace=wrap;rounded=0;" parent="c6bKQEAfyQHRHTY0jHHv-1" vertex="1">
          <mxGeometry x="845.25" y="508.5" width="60" height="30" as="geometry" />
        </mxCell>
        <mxCell id="ScekLoxdn7fWGLo1ed0e-13" value="&lt;span style=&quot;font-size: 24px;&quot;&gt;厂商消息服务&lt;/span&gt;" style="rounded=1;whiteSpace=wrap;html=1;fontSize=18;fillColor=#fff2cc;strokeColor=#d6b656;" parent="c6bKQEAfyQHRHTY0jHHv-1" vertex="1">
          <mxGeometry x="526.05" y="637.5" width="162.25" height="30" as="geometry" />
        </mxCell>
        <mxCell id="ScekLoxdn7fWGLo1ed0e-14" value="&lt;span style=&quot;font-size: 24px;&quot;&gt;任务服务&lt;/span&gt;" style="rounded=1;whiteSpace=wrap;html=1;fontSize=18;fillColor=#f8cecc;strokeColor=#b85450;" parent="c6bKQEAfyQHRHTY0jHHv-1" vertex="1">
          <mxGeometry x="523.9300000000001" y="729.5" width="162.25" height="30" as="geometry" />
        </mxCell>
        <mxCell id="ScekLoxdn7fWGLo1ed0e-20" value="&lt;span style=&quot;font-size: 24px;&quot;&gt;弹窗服务&lt;/span&gt;" style="rounded=1;whiteSpace=wrap;html=1;fontSize=18;fillColor=#f8cecc;strokeColor=#b85450;" parent="c6bKQEAfyQHRHTY0jHHv-1" vertex="1">
          <mxGeometry x="526.05" y="776" width="162.25" height="30" as="geometry" />
        </mxCell>
        <mxCell id="ScekLoxdn7fWGLo1ed0e-23" value="&lt;span style=&quot;font-size: 24px;&quot;&gt;赠券服务&lt;/span&gt;" style="rounded=1;whiteSpace=wrap;html=1;fontSize=18;fillColor=#fff2cc;strokeColor=#d6b656;" parent="c6bKQEAfyQHRHTY0jHHv-1" vertex="1">
          <mxGeometry x="797.88" y="597.5" width="154.75" height="30" as="geometry" />
        </mxCell>
        <mxCell id="ScekLoxdn7fWGLo1ed0e-24" value="&lt;span style=&quot;font-size: 24px;&quot;&gt;订单服务&lt;/span&gt;" style="rounded=1;whiteSpace=wrap;html=1;fontSize=18;fillColor=#f8cecc;strokeColor=#b85450;" parent="c6bKQEAfyQHRHTY0jHHv-1" vertex="1">
          <mxGeometry x="797.88" y="642" width="154.75" height="30" as="geometry" />
        </mxCell>
        <mxCell id="ScekLoxdn7fWGLo1ed0e-27" value="&lt;font style=&quot;font-size: 24px;&quot;&gt;充值档位服务&lt;/font&gt;" style="rounded=1;whiteSpace=wrap;html=1;fontSize=18;fillColor=#fff2cc;strokeColor=#000000;" parent="c6bKQEAfyQHRHTY0jHHv-1" vertex="1">
          <mxGeometry x="797.87" y="547.5" width="154.75" height="30" as="geometry" />
        </mxCell>
        <mxCell id="ScekLoxdn7fWGLo1ed0e-36" value="" style="rounded=0;whiteSpace=wrap;html=1;fontSize=24;fillColor=#D5E8D4;strokeColor=#000000;" parent="c6bKQEAfyQHRHTY0jHHv-1" vertex="1">
          <mxGeometry x="1027.5800000000002" y="450" width="170" height="410" as="geometry" />
        </mxCell>
        <mxCell id="ScekLoxdn7fWGLo1ed0e-37" value="ywos_assist" style="text;html=1;strokeColor=none;fillColor=none;align=center;verticalAlign=middle;whiteSpace=wrap;rounded=0;fontSize=24;" parent="c6bKQEAfyQHRHTY0jHHv-1" vertex="1">
          <mxGeometry x="1000.0000000000001" y="470" width="225.5" height="50" as="geometry" />
        </mxCell>
        <mxCell id="ScekLoxdn7fWGLo1ed0e-38" value="&lt;font style=&quot;font-size: 24px;&quot;&gt;JOB&lt;/font&gt;" style="rounded=0;whiteSpace=wrap;html=1;fillColor=#FFF2CC;strokeColor=#b85450;" parent="c6bKQEAfyQHRHTY0jHHv-1" vertex="1">
          <mxGeometry x="1047.5800000000002" y="560" width="140.34" height="73.5" as="geometry" />
        </mxCell>
        <mxCell id="ScekLoxdn7fWGLo1ed0e-40" value="" style="rounded=0;whiteSpace=wrap;html=1;fontSize=24;fillColor=#e1d5e7;strokeColor=#000000;" parent="c6bKQEAfyQHRHTY0jHHv-1" vertex="1">
          <mxGeometry x="165.25" y="883" width="754.75" height="130" as="geometry" />
        </mxCell>
        <mxCell id="ScekLoxdn7fWGLo1ed0e-41" value="&lt;font style=&quot;font-size: 24px;&quot;&gt;基础设施层&lt;/font&gt;" style="text;html=1;strokeColor=none;fillColor=none;align=center;verticalAlign=middle;whiteSpace=wrap;rounded=0;" parent="c6bKQEAfyQHRHTY0jHHv-1" vertex="1">
          <mxGeometry x="5" y="893" width="150" height="120" as="geometry" />
        </mxCell>
        <mxCell id="ScekLoxdn7fWGLo1ed0e-42" value="ywos_infra" style="text;html=1;strokeColor=none;fillColor=none;align=center;verticalAlign=middle;whiteSpace=wrap;rounded=0;fontSize=24;" parent="c6bKQEAfyQHRHTY0jHHv-1" vertex="1">
          <mxGeometry x="429.88" y="870" width="225.5" height="50" as="geometry" />
        </mxCell>
        <mxCell id="ScekLoxdn7fWGLo1ed0e-44" value="&lt;span style=&quot;font-size: 24px;&quot;&gt;充值回调服务&lt;/span&gt;" style="rounded=1;whiteSpace=wrap;html=1;fontSize=18;fillColor=#FFF2CC;strokeColor=#000000;" parent="c6bKQEAfyQHRHTY0jHHv-1" vertex="1">
          <mxGeometry x="370" y="920" width="162.25" height="30" as="geometry" />
        </mxCell>
        <mxCell id="ScekLoxdn7fWGLo1ed0e-45" value="&lt;span style=&quot;font-size: 24px;&quot;&gt;埋点上报服务&lt;/span&gt;" style="rounded=1;whiteSpace=wrap;html=1;fontSize=18;fillColor=#FFFFFF;strokeColor=#000000;" parent="c6bKQEAfyQHRHTY0jHHv-1" vertex="1">
          <mxGeometry x="735.2499999999999" y="920" width="162.25" height="30" as="geometry" />
        </mxCell>
        <mxCell id="ScekLoxdn7fWGLo1ed0e-46" value="&lt;span style=&quot;font-size: 24px;&quot;&gt;用户服务&lt;/span&gt;" style="rounded=1;whiteSpace=wrap;html=1;fontSize=18;fillColor=#FFF2CC;strokeColor=#b85450;" parent="c6bKQEAfyQHRHTY0jHHv-1" vertex="1">
          <mxGeometry x="184.5" y="963" width="125.5" height="30" as="geometry" />
        </mxCell>
        <mxCell id="ScekLoxdn7fWGLo1ed0e-47" value="&lt;span style=&quot;font-size: 24px;&quot;&gt;实时统计服务&lt;/span&gt;" style="rounded=1;whiteSpace=wrap;html=1;fontSize=18;fillColor=#FFFFFF;strokeColor=#000000;" parent="c6bKQEAfyQHRHTY0jHHv-1" vertex="1">
          <mxGeometry x="370" y="963" width="162.25" height="30" as="geometry" />
        </mxCell>
        <mxCell id="otzyKLWl-aiVc0GJeoVa-1" value="中台（用户计费、通用、智能、数据）" style="rounded=0;whiteSpace=wrap;html=1;fontSize=24;fillColor=#e1d5e7;strokeColor=#000000;" parent="c6bKQEAfyQHRHTY0jHHv-1" vertex="1">
          <mxGeometry x="930" y="883" width="270" height="130" as="geometry" />
        </mxCell>
        <mxCell id="9nEFneRyY81mCP00iOZ4-0" value="短剧" style="rounded=1;whiteSpace=wrap;html=1;fontSize=24;" parent="c6bKQEAfyQHRHTY0jHHv-1" vertex="1">
          <mxGeometry x="549.5600000000001" y="287.5" width="126.63" height="55" as="geometry" />
        </mxCell>
        <mxCell id="9nEFneRyY81mCP00iOZ4-1" value="快应用" style="rounded=1;whiteSpace=wrap;html=1;fontSize=24;" parent="c6bKQEAfyQHRHTY0jHHv-1" vertex="1">
          <mxGeometry x="352.32" y="290" width="164.75" height="55" as="geometry" />
        </mxCell>
        <mxCell id="9nEFneRyY81mCP00iOZ4-3" value="商户后台" style="rounded=1;whiteSpace=wrap;html=1;fontSize=24;" parent="c6bKQEAfyQHRHTY0jHHv-1" vertex="1">
          <mxGeometry x="888.44" y="287.5" width="134.18" height="60" as="geometry" />
        </mxCell>
        <mxCell id="9nEFneRyY81mCP00iOZ4-6" value="&lt;span style=&quot;font-size: 24px;&quot;&gt;token服务&lt;/span&gt;" style="rounded=1;whiteSpace=wrap;html=1;fontSize=18;fillColor=#FFFFFF;strokeColor=#000000;" parent="c6bKQEAfyQHRHTY0jHHv-1" vertex="1">
          <mxGeometry x="558.6199999999999" y="920" width="155.44" height="30" as="geometry" />
        </mxCell>
        <mxCell id="0jycYlJXcyQYSVbl3O99-2" value="新业务" style="rounded=1;whiteSpace=wrap;html=1;fontSize=24;fillColor=#FFFFCC;strokeColor=#000000;" parent="c6bKQEAfyQHRHTY0jHHv-1" vertex="1">
          <mxGeometry x="1041.6000000000001" y="287.5" width="134.18" height="60" as="geometry" />
        </mxCell>
        <mxCell id="0jycYlJXcyQYSVbl3O99-3" value="&lt;span style=&quot;font-size: 24px;&quot;&gt;新业务&lt;/span&gt;" style="rounded=1;whiteSpace=wrap;html=1;strokeColor=#000000;fillColor=#FFFFCC;" parent="c6bKQEAfyQHRHTY0jHHv-1" vertex="1">
          <mxGeometry x="977.63" y="57.5" width="174.75" height="65" as="geometry" />
        </mxCell>
        <mxCell id="0jycYlJXcyQYSVbl3O99-7" value="&lt;font style=&quot;font-size: 24px;&quot;&gt;&lt;b&gt;类SaaS&lt;/b&gt;&lt;/font&gt;" style="text;html=1;strokeColor=none;fillColor=none;align=center;verticalAlign=middle;whiteSpace=wrap;rounded=0;" parent="c6bKQEAfyQHRHTY0jHHv-1" vertex="1">
          <mxGeometry x="1190" y="190" width="150" height="120" as="geometry" />
        </mxCell>
        <mxCell id="1UREIGQ0posssgE1XUAl-0" value="&lt;span style=&quot;font-size: 24px;&quot;&gt;任务服务&lt;/span&gt;" style="rounded=1;whiteSpace=wrap;html=1;fontSize=18;fillColor=#f8cecc;strokeColor=#b85450;" parent="c6bKQEAfyQHRHTY0jHHv-1" vertex="1">
          <mxGeometry x="523.9300000000001" y="729.5" width="162.25" height="30" as="geometry" />
        </mxCell>
        <mxCell id="1UREIGQ0posssgE1XUAl-1" value="&lt;span style=&quot;font-size: 24px;&quot;&gt;弹窗服务&lt;/span&gt;" style="rounded=1;whiteSpace=wrap;html=1;fontSize=18;fillColor=#f8cecc;strokeColor=#b85450;" parent="c6bKQEAfyQHRHTY0jHHv-1" vertex="1">
          <mxGeometry x="526.05" y="776" width="162.25" height="30" as="geometry" />
        </mxCell>
        <mxCell id="1UREIGQ0posssgE1XUAl-2" value="&lt;span style=&quot;font-size: 24px;&quot;&gt;订单服务&lt;/span&gt;" style="rounded=1;whiteSpace=wrap;html=1;fontSize=18;fillColor=#f8cecc;strokeColor=#b85450;" parent="c6bKQEAfyQHRHTY0jHHv-1" vertex="1">
          <mxGeometry x="797.88" y="642" width="154.75" height="30" as="geometry" />
        </mxCell>
        <mxCell id="1UREIGQ0posssgE1XUAl-3" value="&lt;span style=&quot;font-size: 24px;&quot;&gt;赠券服务&lt;/span&gt;" style="rounded=1;whiteSpace=wrap;html=1;fontSize=18;fillColor=#fff2cc;strokeColor=#d6b656;" parent="c6bKQEAfyQHRHTY0jHHv-1" vertex="1">
          <mxGeometry x="797.88" y="597.5" width="154.75" height="30" as="geometry" />
        </mxCell>
        <mxCell id="1UREIGQ0posssgE1XUAl-4" value="&lt;span style=&quot;font-size: 24px;&quot;&gt;厂商消息服务&lt;/span&gt;" style="rounded=1;whiteSpace=wrap;html=1;fontSize=18;fillColor=#fff2cc;strokeColor=#d6b656;" parent="c6bKQEAfyQHRHTY0jHHv-1" vertex="1">
          <mxGeometry x="526.05" y="637.5" width="162.25" height="30" as="geometry" />
        </mxCell>
        <mxCell id="1UREIGQ0posssgE1XUAl-5" value="&lt;span style=&quot;font-size: 24px;&quot;&gt;微信消息服务&lt;/span&gt;" style="rounded=1;whiteSpace=wrap;html=1;fontSize=18;fillColor=#fff2cc;strokeColor=#d6b656;" parent="c6bKQEAfyQHRHTY0jHHv-1" vertex="1">
          <mxGeometry x="520.6200000000001" y="592.5" width="162.25" height="30" as="geometry" />
        </mxCell>
        <mxCell id="1UREIGQ0posssgE1XUAl-6" value="&lt;font style=&quot;font-size: 24px;&quot;&gt;签到服务&lt;/font&gt;" style="rounded=1;whiteSpace=wrap;html=1;fontSize=18;fillColor=#fff2cc;strokeColor=#d6b656;" parent="c6bKQEAfyQHRHTY0jHHv-1" vertex="1">
          <mxGeometry x="523.9300000000001" y="681" width="162.25" height="30" as="geometry" />
        </mxCell>
        <mxCell id="1UREIGQ0posssgE1XUAl-8" value="&lt;span style=&quot;font-size: 24px;&quot;&gt;任务服务&lt;/span&gt;" style="rounded=1;whiteSpace=wrap;html=1;fontSize=18;fillColor=#FFFFFF;strokeColor=#000000;" parent="c6bKQEAfyQHRHTY0jHHv-1" vertex="1">
          <mxGeometry x="523.9300000000001" y="729.5" width="162.25" height="30" as="geometry" />
        </mxCell>
        <mxCell id="1UREIGQ0posssgE1XUAl-9" value="&lt;span style=&quot;font-size: 24px;&quot;&gt;弹窗服务&lt;/span&gt;" style="rounded=1;whiteSpace=wrap;html=1;fontSize=18;fillColor=#FFFFFF;strokeColor=#000000;" parent="c6bKQEAfyQHRHTY0jHHv-1" vertex="1">
          <mxGeometry x="526.05" y="776" width="162.25" height="30" as="geometry" />
        </mxCell>
        <mxCell id="1UREIGQ0posssgE1XUAl-10" value="&lt;span style=&quot;font-size: 24px;&quot;&gt;订单服务&lt;/span&gt;" style="rounded=1;whiteSpace=wrap;html=1;fontSize=18;fillColor=#FFFFFF;strokeColor=#000000;" parent="c6bKQEAfyQHRHTY0jHHv-1" vertex="1">
          <mxGeometry x="797.88" y="642" width="154.75" height="30" as="geometry" />
        </mxCell>
        <mxCell id="1UREIGQ0posssgE1XUAl-11" value="&lt;span style=&quot;font-size: 24px;&quot;&gt;赠券服务&lt;/span&gt;" style="rounded=1;whiteSpace=wrap;html=1;fontSize=18;fillColor=#FFFFFF;strokeColor=#000000;" parent="c6bKQEAfyQHRHTY0jHHv-1" vertex="1">
          <mxGeometry x="797.88" y="597.5" width="154.75" height="30" as="geometry" />
        </mxCell>
        <mxCell id="1UREIGQ0posssgE1XUAl-12" value="&lt;span style=&quot;font-size: 24px;&quot;&gt;厂商消息服务&lt;/span&gt;" style="rounded=1;whiteSpace=wrap;html=1;fontSize=18;fillColor=#FFFFFF;strokeColor=#000000;" parent="c6bKQEAfyQHRHTY0jHHv-1" vertex="1">
          <mxGeometry x="526.05" y="637.5" width="162.25" height="30" as="geometry" />
        </mxCell>
        <mxCell id="1UREIGQ0posssgE1XUAl-13" value="&lt;span style=&quot;font-size: 24px;&quot;&gt;微信消息服务&lt;/span&gt;" style="rounded=1;whiteSpace=wrap;html=1;fontSize=18;fillColor=#FFFFFF;strokeColor=#000000;" parent="c6bKQEAfyQHRHTY0jHHv-1" vertex="1">
          <mxGeometry x="520.6200000000001" y="592.5" width="162.25" height="30" as="geometry" />
        </mxCell>
        <mxCell id="1UREIGQ0posssgE1XUAl-14" value="&lt;font style=&quot;font-size: 24px;&quot;&gt;签到服务&lt;/font&gt;" style="rounded=1;whiteSpace=wrap;html=1;fontSize=18;fillColor=#FFFFFF;strokeColor=#000000;" parent="c6bKQEAfyQHRHTY0jHHv-1" vertex="1">
          <mxGeometry x="523.9300000000001" y="681" width="162.25" height="30" as="geometry" />
        </mxCell>
        <mxCell id="1UREIGQ0posssgE1XUAl-15" value="&lt;font style=&quot;font-size: 24px;&quot;&gt;广告服务&lt;/font&gt;" style="rounded=1;whiteSpace=wrap;html=1;fontSize=18;fillColor=#FFFFFF;strokeColor=#000000;" parent="c6bKQEAfyQHRHTY0jHHv-1" vertex="1">
          <mxGeometry x="790.37" y="740" width="162.25" height="30" as="geometry" />
        </mxCell>
        <mxCell id="1UREIGQ0posssgE1XUAl-16" value="&lt;span style=&quot;font-size: 24px;&quot;&gt;用户标签服务&lt;/span&gt;" style="rounded=1;whiteSpace=wrap;html=1;fontSize=18;fillColor=#FFFFFF;strokeColor=#000000;" parent="c6bKQEAfyQHRHTY0jHHv-1" vertex="1">
          <mxGeometry x="558.6199999999998" y="963" width="156.07" height="30" as="geometry" />
        </mxCell>
        <mxCell id="ScekLoxdn7fWGLo1ed0e-43" value="&lt;span style=&quot;font-size: 24px;&quot;&gt;租户服务&lt;/span&gt;" style="rounded=1;whiteSpace=wrap;html=1;fontSize=18;fillColor=#CCFFCC;strokeColor=#6c8ebf;" parent="c6bKQEAfyQHRHTY0jHHv-1" vertex="1">
          <mxGeometry x="184.5" y="920" width="125.5" height="30" as="geometry" />
        </mxCell>
        <mxCell id="1UREIGQ0posssgE1XUAl-18" value="&lt;font style=&quot;font-size: 24px;&quot;&gt;JOB&lt;/font&gt;" style="rounded=0;whiteSpace=wrap;html=1;fillColor=#FFF2CC;strokeColor=#000000;" parent="c6bKQEAfyQHRHTY0jHHv-1" vertex="1">
          <mxGeometry x="1047.5800000000002" y="560" width="140.34" height="73.5" as="geometry" />
        </mxCell>
        <mxCell id="1UREIGQ0posssgE1XUAl-19" value="&lt;span style=&quot;font-size: 24px;&quot;&gt;数据回传&lt;/span&gt;" style="rounded=0;whiteSpace=wrap;html=1;fillColor=#FFF2CC;strokeColor=#000000;" parent="c6bKQEAfyQHRHTY0jHHv-1" vertex="1">
          <mxGeometry x="1047.58" y="665" width="137.92" height="75" as="geometry" />
        </mxCell>
        <mxCell id="1UREIGQ0posssgE1XUAl-20" value="&lt;font style=&quot;font-size: 24px;&quot;&gt;归因服务&lt;/font&gt;" style="rounded=1;whiteSpace=wrap;html=1;fontSize=18;fillColor=#fff2cc;strokeColor=#000000;" parent="c6bKQEAfyQHRHTY0jHHv-1" vertex="1">
          <mxGeometry x="792.4999999999999" y="783.5" width="162.25" height="30" as="geometry" />
        </mxCell>
        <mxCell id="1UREIGQ0posssgE1XUAl-21" value="&lt;font style=&quot;font-size: 24px;&quot;&gt;动态卡点服务&lt;/font&gt;" style="rounded=1;whiteSpace=wrap;html=1;fontSize=18;fillColor=#dae8fc;strokeColor=#000000;" parent="c6bKQEAfyQHRHTY0jHHv-1" vertex="1">
          <mxGeometry x="231.82" y="546" width="162.13" height="30" as="geometry" />
        </mxCell>
        <mxCell id="1UREIGQ0posssgE1XUAl-22" value="&lt;font style=&quot;font-size: 24px;&quot;&gt;价格服务&lt;/font&gt;" style="rounded=1;whiteSpace=wrap;html=1;fontSize=18;fillColor=#CCFFCC;strokeColor=#000000;" parent="c6bKQEAfyQHRHTY0jHHv-1" vertex="1">
          <mxGeometry x="231.75" y="591" width="162.25" height="30" as="geometry" />
        </mxCell>
        <mxCell id="1UREIGQ0posssgE1XUAl-23" value="&lt;font style=&quot;font-size: 24px;&quot;&gt;cms服务&lt;/font&gt;" style="rounded=1;whiteSpace=wrap;html=1;fontSize=18;fillColor=#fff2cc;strokeColor=#000000;" parent="c6bKQEAfyQHRHTY0jHHv-1" vertex="1">
          <mxGeometry x="235.5" y="707" width="154.75" height="30" as="geometry" />
        </mxCell>
        <mxCell id="1UREIGQ0posssgE1XUAl-24" value="&lt;font style=&quot;font-size: 24px;&quot;&gt;书推荐服务&lt;/font&gt;" style="rounded=1;whiteSpace=wrap;html=1;fontSize=18;fillColor=#FFFFFF;strokeColor=#000000;" parent="c6bKQEAfyQHRHTY0jHHv-1" vertex="1">
          <mxGeometry x="235.5" y="759.5" width="154.75" height="30" as="geometry" />
        </mxCell>
        <mxCell id="1UREIGQ0posssgE1XUAl-25" value="待规划" style="rounded=1;whiteSpace=wrap;html=1;fontSize=24;fillColor=#FFFFFF;strokeColor=#000000;" parent="c6bKQEAfyQHRHTY0jHHv-1" vertex="1">
          <mxGeometry x="17.62" y="750" width="124.75" height="40" as="geometry" />
        </mxCell>
        <mxCell id="1UREIGQ0posssgE1XUAl-26" value="规划中" style="rounded=1;whiteSpace=wrap;html=1;fontSize=24;fillColor=#fff2cc;strokeColor=#000000;" parent="c6bKQEAfyQHRHTY0jHHv-1" vertex="1">
          <mxGeometry x="17.62" y="700.87" width="124.75" height="39.13" as="geometry" />
        </mxCell>
        <mxCell id="1UREIGQ0posssgE1XUAl-27" value="已上线" style="rounded=1;whiteSpace=wrap;html=1;fontSize=24;fillColor=#CCFFCC;strokeColor=#000000;" parent="c6bKQEAfyQHRHTY0jHHv-1" vertex="1">
          <mxGeometry x="17.62" y="650" width="124.75" height="40" as="geometry" />
        </mxCell>
        <mxCell id="1UREIGQ0posssgE1XUAl-28" value="&lt;span style=&quot;font-size: 24px;&quot;&gt;租户服务&lt;/span&gt;" style="rounded=1;whiteSpace=wrap;html=1;fontSize=18;fillColor=#CCFFCC;strokeColor=#000000;" parent="c6bKQEAfyQHRHTY0jHHv-1" vertex="1">
          <mxGeometry x="184.5" y="920" width="125.5" height="30" as="geometry" />
        </mxCell>
        <mxCell id="1UREIGQ0posssgE1XUAl-29" value="&lt;span style=&quot;font-size: 24px;&quot;&gt;用户服务&lt;/span&gt;" style="rounded=1;whiteSpace=wrap;html=1;fontSize=18;fillColor=#FFF2CC;strokeColor=#000000;" parent="c6bKQEAfyQHRHTY0jHHv-1" vertex="1">
          <mxGeometry x="184.5" y="963" width="125.5" height="30" as="geometry" />
        </mxCell>
      </root>
    </mxGraphModel>
  </diagram>
  <diagram name="原架构+人" id="VA0HS3UGyoiqWmybU146">
    <mxGraphModel dx="2214" dy="1181" grid="1" gridSize="10" guides="1" tooltips="1" connect="1" arrows="1" fold="1" page="1" pageScale="1" pageWidth="827" pageHeight="1169" math="0" shadow="0">
      <root>
        <mxCell id="hIeJoba1_2ma_BmrxrTI-0" />
        <mxCell id="hIeJoba1_2ma_BmrxrTI-1" parent="hIeJoba1_2ma_BmrxrTI-0" />
        <mxCell id="hIeJoba1_2ma_BmrxrTI-2" value="" style="rounded=0;whiteSpace=wrap;html=1;fillColor=#dae8fc;strokeColor=#6c8ebf;" parent="hIeJoba1_2ma_BmrxrTI-1" vertex="1">
          <mxGeometry x="390" y="70" width="960" height="90" as="geometry" />
        </mxCell>
        <mxCell id="hIeJoba1_2ma_BmrxrTI-3" value="&lt;font style=&quot;font-size: 24px;&quot;&gt;微信（公众号、小程序）&lt;/font&gt;" style="rounded=1;whiteSpace=wrap;html=1;" parent="hIeJoba1_2ma_BmrxrTI-1" vertex="1">
          <mxGeometry x="410" y="90" width="270" height="60" as="geometry" />
        </mxCell>
        <mxCell id="BXKLDlMg8tTgGFCJG3Cu-6" style="edgeStyle=orthogonalEdgeStyle;rounded=0;orthogonalLoop=1;jettySize=auto;html=1;entryX=0;entryY=0.5;entryDx=0;entryDy=0;fontSize=12;" edge="1" parent="hIeJoba1_2ma_BmrxrTI-1" source="hIeJoba1_2ma_BmrxrTI-4" target="BXKLDlMg8tTgGFCJG3Cu-4">
          <mxGeometry relative="1" as="geometry">
            <Array as="points">
              <mxPoint x="846" y="220" />
              <mxPoint x="190" y="220" />
              <mxPoint x="190" y="794" />
            </Array>
          </mxGeometry>
        </mxCell>
        <mxCell id="hIeJoba1_2ma_BmrxrTI-4" value="&lt;font style=&quot;font-size: 24px;&quot;&gt;移动App（快应用、仓雄）&lt;/font&gt;" style="rounded=1;whiteSpace=wrap;html=1;" parent="hIeJoba1_2ma_BmrxrTI-1" vertex="1">
          <mxGeometry x="701.31" y="87.5" width="288.69" height="62.5" as="geometry" />
        </mxCell>
        <mxCell id="hIeJoba1_2ma_BmrxrTI-5" value="&lt;span style=&quot;font-size: 24px;&quot;&gt;业务线&lt;/span&gt;" style="text;html=1;strokeColor=none;fillColor=none;align=center;verticalAlign=middle;whiteSpace=wrap;rounded=0;" parent="hIeJoba1_2ma_BmrxrTI-1" vertex="1">
          <mxGeometry x="290" y="102.5" width="100" height="50" as="geometry" />
        </mxCell>
        <mxCell id="ON5QXbSR_Yyp0dDCvBte-3" style="edgeStyle=orthogonalEdgeStyle;rounded=0;orthogonalLoop=1;jettySize=auto;html=1;fontSize=12;" edge="1" parent="hIeJoba1_2ma_BmrxrTI-1" target="BXKLDlMg8tTgGFCJG3Cu-3">
          <mxGeometry relative="1" as="geometry">
            <mxPoint x="240" y="540" as="sourcePoint" />
            <Array as="points">
              <mxPoint x="230" y="540" />
              <mxPoint x="230" y="714" />
            </Array>
          </mxGeometry>
        </mxCell>
        <mxCell id="hIeJoba1_2ma_BmrxrTI-12" value="&lt;font style=&quot;font-size: 24px;&quot;&gt;谢新仲&lt;br&gt;（&lt;/font&gt;&lt;font style=&quot;font-size: 18px;&quot;&gt;丽杰、凯阳&lt;/font&gt;&lt;font style=&quot;font-size: 24px;&quot;&gt;）&lt;br&gt;&lt;/font&gt;" style="text;html=1;strokeColor=none;fillColor=none;align=center;verticalAlign=middle;whiteSpace=wrap;rounded=0;" parent="hIeJoba1_2ma_BmrxrTI-1" vertex="1">
          <mxGeometry x="270" y="532.5" width="140" height="30" as="geometry" />
        </mxCell>
        <mxCell id="hIeJoba1_2ma_BmrxrTI-13" value="" style="rounded=0;whiteSpace=wrap;html=1;fillColor=#d5e8d4;strokeColor=#82b366;" parent="hIeJoba1_2ma_BmrxrTI-1" vertex="1">
          <mxGeometry x="410" y="426.5" width="540" height="230" as="geometry" />
        </mxCell>
        <mxCell id="hIeJoba1_2ma_BmrxrTI-14" value="&lt;font style=&quot;font-size: 24px;&quot;&gt;微信分销&lt;/font&gt;" style="text;html=1;strokeColor=none;fillColor=none;align=center;verticalAlign=middle;whiteSpace=wrap;rounded=0;" parent="hIeJoba1_2ma_BmrxrTI-1" vertex="1">
          <mxGeometry x="623.75" y="426.5" width="112.5" height="30" as="geometry" />
        </mxCell>
        <mxCell id="hIeJoba1_2ma_BmrxrTI-15" value="" style="rounded=0;whiteSpace=wrap;html=1;" parent="hIeJoba1_2ma_BmrxrTI-1" vertex="1">
          <mxGeometry x="422.5" y="463.5" width="127.5" height="183" as="geometry" />
        </mxCell>
        <mxCell id="hIeJoba1_2ma_BmrxrTI-16" value="&lt;font style=&quot;font-size: 18px;&quot;&gt;书城&lt;/font&gt;" style="text;html=1;strokeColor=none;fillColor=none;align=center;verticalAlign=middle;whiteSpace=wrap;rounded=0;" parent="hIeJoba1_2ma_BmrxrTI-1" vertex="1">
          <mxGeometry x="451.25" y="461.5" width="60" height="30" as="geometry" />
        </mxCell>
        <mxCell id="hIeJoba1_2ma_BmrxrTI-17" value="&lt;font style=&quot;font-size: 18px;&quot;&gt;首页&lt;/font&gt;" style="rounded=1;whiteSpace=wrap;html=1;" parent="hIeJoba1_2ma_BmrxrTI-1" vertex="1">
          <mxGeometry x="435.25" y="496.5" width="90" height="25" as="geometry" />
        </mxCell>
        <mxCell id="hIeJoba1_2ma_BmrxrTI-18" value="&lt;font style=&quot;font-size: 18px;&quot;&gt;排行榜&lt;/font&gt;" style="rounded=1;whiteSpace=wrap;html=1;" parent="hIeJoba1_2ma_BmrxrTI-1" vertex="1">
          <mxGeometry x="436.25" y="535" width="90" height="25" as="geometry" />
        </mxCell>
        <mxCell id="hIeJoba1_2ma_BmrxrTI-19" value="&lt;font style=&quot;font-size: 18px;&quot;&gt;推荐&lt;/font&gt;" style="rounded=1;whiteSpace=wrap;html=1;" parent="hIeJoba1_2ma_BmrxrTI-1" vertex="1">
          <mxGeometry x="435.25" y="571.5" width="90" height="25" as="geometry" />
        </mxCell>
        <mxCell id="hIeJoba1_2ma_BmrxrTI-20" value="&lt;font style=&quot;font-size: 18px;&quot;&gt;轮播图、弹窗&lt;/font&gt;" style="rounded=1;whiteSpace=wrap;html=1;" parent="hIeJoba1_2ma_BmrxrTI-1" vertex="1">
          <mxGeometry x="429.38" y="602.25" width="113.75" height="40" as="geometry" />
        </mxCell>
        <mxCell id="hIeJoba1_2ma_BmrxrTI-21" value="" style="rounded=0;whiteSpace=wrap;html=1;" parent="hIeJoba1_2ma_BmrxrTI-1" vertex="1">
          <mxGeometry x="562.5" y="463.5" width="117.5" height="183" as="geometry" />
        </mxCell>
        <mxCell id="hIeJoba1_2ma_BmrxrTI-22" value="&lt;font style=&quot;font-size: 18px;&quot;&gt;书籍&lt;/font&gt;" style="text;html=1;strokeColor=none;fillColor=none;align=center;verticalAlign=middle;whiteSpace=wrap;rounded=0;" parent="hIeJoba1_2ma_BmrxrTI-1" vertex="1">
          <mxGeometry x="591.25" y="464" width="60" height="30" as="geometry" />
        </mxCell>
        <mxCell id="hIeJoba1_2ma_BmrxrTI-23" value="&lt;font style=&quot;font-size: 18px;&quot;&gt;阅读页&lt;/font&gt;" style="rounded=1;whiteSpace=wrap;html=1;" parent="hIeJoba1_2ma_BmrxrTI-1" vertex="1">
          <mxGeometry x="576.25" y="494" width="90" height="25" as="geometry" />
        </mxCell>
        <mxCell id="hIeJoba1_2ma_BmrxrTI-24" value="&lt;font style=&quot;font-size: 18px;&quot;&gt;书、章信息&lt;/font&gt;" style="rounded=1;whiteSpace=wrap;html=1;" parent="hIeJoba1_2ma_BmrxrTI-1" vertex="1">
          <mxGeometry x="576.25" y="530" width="93.75" height="30" as="geometry" />
        </mxCell>
        <mxCell id="hIeJoba1_2ma_BmrxrTI-25" value="&lt;font style=&quot;font-size: 18px;&quot;&gt;章节列表&lt;/font&gt;" style="rounded=1;whiteSpace=wrap;html=1;" parent="hIeJoba1_2ma_BmrxrTI-1" vertex="1">
          <mxGeometry x="576.25" y="571.5" width="90" height="25" as="geometry" />
        </mxCell>
        <mxCell id="hIeJoba1_2ma_BmrxrTI-26" value="&lt;font style=&quot;font-size: 18px;&quot;&gt;订阅&lt;/font&gt;" style="rounded=1;whiteSpace=wrap;html=1;" parent="hIeJoba1_2ma_BmrxrTI-1" vertex="1">
          <mxGeometry x="576.25" y="609.75" width="90" height="25" as="geometry" />
        </mxCell>
        <mxCell id="hIeJoba1_2ma_BmrxrTI-27" value="" style="rounded=0;whiteSpace=wrap;html=1;" parent="hIeJoba1_2ma_BmrxrTI-1" vertex="1">
          <mxGeometry x="705.5" y="463.5" width="114.5" height="133" as="geometry" />
        </mxCell>
        <mxCell id="hIeJoba1_2ma_BmrxrTI-28" value="&lt;font style=&quot;font-size: 18px;&quot;&gt;充值&lt;/font&gt;" style="text;html=1;strokeColor=none;fillColor=none;align=center;verticalAlign=middle;whiteSpace=wrap;rounded=0;" parent="hIeJoba1_2ma_BmrxrTI-1" vertex="1">
          <mxGeometry x="734.25" y="464" width="60" height="30" as="geometry" />
        </mxCell>
        <mxCell id="hIeJoba1_2ma_BmrxrTI-29" value="&lt;font style=&quot;font-size: 18px;&quot;&gt;充值档位&lt;/font&gt;" style="rounded=1;whiteSpace=wrap;html=1;" parent="hIeJoba1_2ma_BmrxrTI-1" vertex="1">
          <mxGeometry x="715.31" y="505" width="90" height="25" as="geometry" />
        </mxCell>
        <mxCell id="hIeJoba1_2ma_BmrxrTI-30" value="&lt;font style=&quot;font-size: 18px;&quot;&gt;下单&lt;/font&gt;" style="rounded=1;whiteSpace=wrap;html=1;" parent="hIeJoba1_2ma_BmrxrTI-1" vertex="1">
          <mxGeometry x="715.31" y="555" width="90" height="25" as="geometry" />
        </mxCell>
        <mxCell id="hIeJoba1_2ma_BmrxrTI-31" value="&lt;font style=&quot;font-size: 18px;&quot;&gt;书架&lt;/font&gt;" style="rounded=0;whiteSpace=wrap;html=1;" parent="hIeJoba1_2ma_BmrxrTI-1" vertex="1">
          <mxGeometry x="827.38" y="618" width="112.62" height="28.5" as="geometry" />
        </mxCell>
        <mxCell id="hIeJoba1_2ma_BmrxrTI-32" value="&lt;font style=&quot;font-size: 18px;&quot;&gt;阅读进度&lt;/font&gt;" style="rounded=0;whiteSpace=wrap;html=1;" parent="hIeJoba1_2ma_BmrxrTI-1" vertex="1">
          <mxGeometry x="704" y="618" width="112.62" height="28.5" as="geometry" />
        </mxCell>
        <mxCell id="hIeJoba1_2ma_BmrxrTI-33" value="" style="rounded=0;whiteSpace=wrap;html=1;" parent="hIeJoba1_2ma_BmrxrTI-1" vertex="1">
          <mxGeometry x="828.12" y="466.5" width="111.88" height="130" as="geometry" />
        </mxCell>
        <mxCell id="hIeJoba1_2ma_BmrxrTI-34" value="&lt;font style=&quot;font-size: 18px;&quot;&gt;用户&lt;/font&gt;" style="text;html=1;strokeColor=none;fillColor=none;align=center;verticalAlign=middle;whiteSpace=wrap;rounded=0;" parent="hIeJoba1_2ma_BmrxrTI-1" vertex="1">
          <mxGeometry x="854.06" y="466.5" width="60" height="30" as="geometry" />
        </mxCell>
        <mxCell id="hIeJoba1_2ma_BmrxrTI-35" value="&lt;font style=&quot;font-size: 18px;&quot;&gt;登录&lt;/font&gt;" style="rounded=1;whiteSpace=wrap;html=1;" parent="hIeJoba1_2ma_BmrxrTI-1" vertex="1">
          <mxGeometry x="839.75" y="505" width="90" height="25" as="geometry" />
        </mxCell>
        <mxCell id="hIeJoba1_2ma_BmrxrTI-36" value="&lt;font style=&quot;font-size: 18px;&quot;&gt;个人中心&lt;/font&gt;" style="rounded=1;whiteSpace=wrap;html=1;" parent="hIeJoba1_2ma_BmrxrTI-1" vertex="1">
          <mxGeometry x="841.31" y="555" width="90" height="25" as="geometry" />
        </mxCell>
        <mxCell id="hIeJoba1_2ma_BmrxrTI-37" value="" style="rounded=0;whiteSpace=wrap;html=1;fillColor=#d5e8d4;strokeColor=#82b366;" parent="hIeJoba1_2ma_BmrxrTI-1" vertex="1">
          <mxGeometry x="410" y="681.5" width="540" height="65" as="geometry" />
        </mxCell>
        <mxCell id="hIeJoba1_2ma_BmrxrTI-38" value="&lt;font style=&quot;font-size: 24px;&quot;&gt;快应用/小程序&lt;/font&gt;" style="text;html=1;strokeColor=none;fillColor=none;align=center;verticalAlign=middle;whiteSpace=wrap;rounded=0;" parent="hIeJoba1_2ma_BmrxrTI-1" vertex="1">
          <mxGeometry x="601.5" y="681.5" width="162.5" height="35" as="geometry" />
        </mxCell>
        <mxCell id="hIeJoba1_2ma_BmrxrTI-39" value="&lt;font style=&quot;font-size: 18px;&quot;&gt;书城&lt;/font&gt;" style="rounded=0;whiteSpace=wrap;html=1;" parent="hIeJoba1_2ma_BmrxrTI-1" vertex="1">
          <mxGeometry x="418" y="711.5" width="74" height="30" as="geometry" />
        </mxCell>
        <mxCell id="hIeJoba1_2ma_BmrxrTI-40" value="&lt;font style=&quot;font-size: 18px;&quot;&gt;书籍&lt;/font&gt;" style="rounded=0;whiteSpace=wrap;html=1;" parent="hIeJoba1_2ma_BmrxrTI-1" vertex="1">
          <mxGeometry x="511.25" y="711.5" width="74" height="30" as="geometry" />
        </mxCell>
        <mxCell id="hIeJoba1_2ma_BmrxrTI-41" value="&lt;font style=&quot;font-size: 18px;&quot;&gt;充值&lt;/font&gt;" style="rounded=0;whiteSpace=wrap;html=1;" parent="hIeJoba1_2ma_BmrxrTI-1" vertex="1">
          <mxGeometry x="600" y="711.5" width="74" height="30" as="geometry" />
        </mxCell>
        <mxCell id="hIeJoba1_2ma_BmrxrTI-42" value="&lt;font style=&quot;font-size: 18px;&quot;&gt;用户&lt;/font&gt;" style="rounded=0;whiteSpace=wrap;html=1;" parent="hIeJoba1_2ma_BmrxrTI-1" vertex="1">
          <mxGeometry x="690" y="711.5" width="74" height="30" as="geometry" />
        </mxCell>
        <mxCell id="hIeJoba1_2ma_BmrxrTI-43" value="&lt;font style=&quot;font-size: 18px;&quot;&gt;书架&lt;/font&gt;" style="rounded=0;whiteSpace=wrap;html=1;" parent="hIeJoba1_2ma_BmrxrTI-1" vertex="1">
          <mxGeometry x="780.06" y="711.5" width="74" height="30" as="geometry" />
        </mxCell>
        <mxCell id="hIeJoba1_2ma_BmrxrTI-44" value="&lt;font style=&quot;font-size: 18px;&quot;&gt;阅读进度&lt;/font&gt;" style="rounded=0;whiteSpace=wrap;html=1;" parent="hIeJoba1_2ma_BmrxrTI-1" vertex="1">
          <mxGeometry x="866" y="711.5" width="74" height="30" as="geometry" />
        </mxCell>
        <mxCell id="hIeJoba1_2ma_BmrxrTI-45" value="" style="rounded=0;whiteSpace=wrap;html=1;fillColor=#d5e8d4;strokeColor=#82b366;" parent="hIeJoba1_2ma_BmrxrTI-1" vertex="1">
          <mxGeometry x="410" y="761.5" width="540" height="65" as="geometry" />
        </mxCell>
        <mxCell id="hIeJoba1_2ma_BmrxrTI-46" value="&lt;font style=&quot;font-size: 18px;&quot;&gt;书城&lt;/font&gt;" style="rounded=0;whiteSpace=wrap;html=1;" parent="hIeJoba1_2ma_BmrxrTI-1" vertex="1">
          <mxGeometry x="418" y="791.5" width="74" height="30" as="geometry" />
        </mxCell>
        <mxCell id="hIeJoba1_2ma_BmrxrTI-47" value="&lt;font style=&quot;font-size: 18px;&quot;&gt;书籍&lt;/font&gt;" style="rounded=0;whiteSpace=wrap;html=1;" parent="hIeJoba1_2ma_BmrxrTI-1" vertex="1">
          <mxGeometry x="511.25" y="791.5" width="74" height="30" as="geometry" />
        </mxCell>
        <mxCell id="hIeJoba1_2ma_BmrxrTI-48" value="&lt;font style=&quot;font-size: 18px;&quot;&gt;充值&lt;/font&gt;" style="rounded=0;whiteSpace=wrap;html=1;" parent="hIeJoba1_2ma_BmrxrTI-1" vertex="1">
          <mxGeometry x="600" y="791.5" width="74" height="30" as="geometry" />
        </mxCell>
        <mxCell id="hIeJoba1_2ma_BmrxrTI-49" value="&lt;font style=&quot;font-size: 18px;&quot;&gt;用户&lt;/font&gt;" style="rounded=0;whiteSpace=wrap;html=1;" parent="hIeJoba1_2ma_BmrxrTI-1" vertex="1">
          <mxGeometry x="690" y="791.5" width="74" height="30" as="geometry" />
        </mxCell>
        <mxCell id="hIeJoba1_2ma_BmrxrTI-50" value="&lt;font style=&quot;font-size: 18px;&quot;&gt;书架&lt;/font&gt;" style="rounded=0;whiteSpace=wrap;html=1;" parent="hIeJoba1_2ma_BmrxrTI-1" vertex="1">
          <mxGeometry x="780.06" y="791.5" width="74" height="30" as="geometry" />
        </mxCell>
        <mxCell id="hIeJoba1_2ma_BmrxrTI-51" value="&lt;font style=&quot;font-size: 18px;&quot;&gt;阅读进度&lt;/font&gt;" style="rounded=0;whiteSpace=wrap;html=1;" parent="hIeJoba1_2ma_BmrxrTI-1" vertex="1">
          <mxGeometry x="866" y="789" width="74" height="35" as="geometry" />
        </mxCell>
        <mxCell id="hIeJoba1_2ma_BmrxrTI-52" value="&lt;font style=&quot;font-size: 24px;&quot;&gt;短剧&lt;/font&gt;" style="text;html=1;strokeColor=none;fillColor=none;align=center;verticalAlign=middle;whiteSpace=wrap;rounded=0;" parent="hIeJoba1_2ma_BmrxrTI-1" vertex="1">
          <mxGeometry x="635" y="761.5" width="90" height="30" as="geometry" />
        </mxCell>
        <mxCell id="hIeJoba1_2ma_BmrxrTI-53" value="" style="rounded=0;whiteSpace=wrap;html=1;fillColor=#d5e8d4;strokeColor=#82b366;" parent="hIeJoba1_2ma_BmrxrTI-1" vertex="1">
          <mxGeometry x="410" y="846.5" width="540" height="65" as="geometry" />
        </mxCell>
        <mxCell id="hIeJoba1_2ma_BmrxrTI-54" value="&lt;font style=&quot;font-size: 18px;&quot;&gt;书城&lt;/font&gt;" style="rounded=0;whiteSpace=wrap;html=1;" parent="hIeJoba1_2ma_BmrxrTI-1" vertex="1">
          <mxGeometry x="418" y="876.5" width="74" height="30" as="geometry" />
        </mxCell>
        <mxCell id="hIeJoba1_2ma_BmrxrTI-55" value="&lt;font style=&quot;font-size: 18px;&quot;&gt;书籍&lt;/font&gt;" style="rounded=0;whiteSpace=wrap;html=1;" parent="hIeJoba1_2ma_BmrxrTI-1" vertex="1">
          <mxGeometry x="511.25" y="876.5" width="74" height="30" as="geometry" />
        </mxCell>
        <mxCell id="hIeJoba1_2ma_BmrxrTI-56" value="&lt;font style=&quot;font-size: 18px;&quot;&gt;充值&lt;/font&gt;" style="rounded=0;whiteSpace=wrap;html=1;" parent="hIeJoba1_2ma_BmrxrTI-1" vertex="1">
          <mxGeometry x="600" y="876.5" width="74" height="30" as="geometry" />
        </mxCell>
        <mxCell id="hIeJoba1_2ma_BmrxrTI-57" value="&lt;font style=&quot;font-size: 18px;&quot;&gt;用户&lt;/font&gt;" style="rounded=0;whiteSpace=wrap;html=1;" parent="hIeJoba1_2ma_BmrxrTI-1" vertex="1">
          <mxGeometry x="690" y="876.5" width="74" height="30" as="geometry" />
        </mxCell>
        <mxCell id="hIeJoba1_2ma_BmrxrTI-58" value="&lt;font style=&quot;font-size: 18px;&quot;&gt;书架&lt;/font&gt;" style="rounded=0;whiteSpace=wrap;html=1;" parent="hIeJoba1_2ma_BmrxrTI-1" vertex="1">
          <mxGeometry x="780.06" y="876.5" width="74" height="30" as="geometry" />
        </mxCell>
        <mxCell id="hIeJoba1_2ma_BmrxrTI-59" value="&lt;font style=&quot;font-size: 24px;&quot;&gt;仓雄&lt;/font&gt;" style="text;html=1;strokeColor=none;fillColor=none;align=center;verticalAlign=middle;whiteSpace=wrap;rounded=0;" parent="hIeJoba1_2ma_BmrxrTI-1" vertex="1">
          <mxGeometry x="635" y="846.5" width="90" height="30" as="geometry" />
        </mxCell>
        <mxCell id="hIeJoba1_2ma_BmrxrTI-60" value="" style="rounded=0;whiteSpace=wrap;html=1;fillColor=#fff2cc;strokeColor=#d6b656;" parent="hIeJoba1_2ma_BmrxrTI-1" vertex="1">
          <mxGeometry x="1180" y="429" width="160" height="228.5" as="geometry" />
        </mxCell>
        <mxCell id="hIeJoba1_2ma_BmrxrTI-61" value="" style="rounded=0;whiteSpace=wrap;html=1;fillColor=#fff2cc;strokeColor=#d6b656;" parent="hIeJoba1_2ma_BmrxrTI-1" vertex="1">
          <mxGeometry x="970" y="426.5" width="190" height="485" as="geometry" />
        </mxCell>
        <mxCell id="hIeJoba1_2ma_BmrxrTI-62" value="&lt;font style=&quot;font-size: 24px;&quot;&gt;投放&lt;/font&gt;" style="text;html=1;strokeColor=none;fillColor=none;align=center;verticalAlign=middle;whiteSpace=wrap;rounded=0;" parent="hIeJoba1_2ma_BmrxrTI-1" vertex="1">
          <mxGeometry x="1225" y="436.5" width="70" height="30" as="geometry" />
        </mxCell>
        <mxCell id="hIeJoba1_2ma_BmrxrTI-63" value="&lt;font style=&quot;font-size: 18px;&quot;&gt;归因&lt;/font&gt;" style="rounded=1;whiteSpace=wrap;html=1;" parent="hIeJoba1_2ma_BmrxrTI-1" vertex="1">
          <mxGeometry x="1200" y="494" width="120" height="41.5" as="geometry" />
        </mxCell>
        <mxCell id="hIeJoba1_2ma_BmrxrTI-64" value="&lt;font style=&quot;font-size: 18px;&quot;&gt;回传&lt;/font&gt;" style="rounded=1;whiteSpace=wrap;html=1;" parent="hIeJoba1_2ma_BmrxrTI-1" vertex="1">
          <mxGeometry x="1200" y="580" width="120" height="41.5" as="geometry" />
        </mxCell>
        <mxCell id="hIeJoba1_2ma_BmrxrTI-65" value="&lt;font style=&quot;font-size: 24px;&quot;&gt;活动&lt;/font&gt;" style="rounded=0;whiteSpace=wrap;html=1;fillColor=#d5e8d4;strokeColor=#82b366;" parent="hIeJoba1_2ma_BmrxrTI-1" vertex="1">
          <mxGeometry x="1180" y="686.5" width="160" height="228.5" as="geometry" />
        </mxCell>
        <mxCell id="ON5QXbSR_Yyp0dDCvBte-6" style="edgeStyle=orthogonalEdgeStyle;rounded=0;orthogonalLoop=1;jettySize=auto;html=1;exitX=0.5;exitY=1;exitDx=0;exitDy=0;fontSize=12;" edge="1" parent="hIeJoba1_2ma_BmrxrTI-1" source="hIeJoba1_2ma_BmrxrTI-66" target="BXKLDlMg8tTgGFCJG3Cu-0">
          <mxGeometry relative="1" as="geometry" />
        </mxCell>
        <mxCell id="hIeJoba1_2ma_BmrxrTI-66" value="&lt;font style=&quot;font-size: 24px;&quot;&gt;商户&lt;/font&gt;" style="rounded=1;whiteSpace=wrap;html=1;" parent="hIeJoba1_2ma_BmrxrTI-1" vertex="1">
          <mxGeometry x="1020" y="87.5" width="230" height="65" as="geometry" />
        </mxCell>
        <mxCell id="hIeJoba1_2ma_BmrxrTI-73" value="C端" style="rounded=0;whiteSpace=wrap;html=1;fontSize=24;fillColor=#d5e8d4;strokeColor=#82b366;" parent="hIeJoba1_2ma_BmrxrTI-1" vertex="1">
          <mxGeometry x="60" y="340" width="60" height="36.5" as="geometry" />
        </mxCell>
        <mxCell id="hIeJoba1_2ma_BmrxrTI-74" value="B端" style="rounded=0;whiteSpace=wrap;html=1;fontSize=24;fillColor=#fff2cc;strokeColor=#d6b656;" parent="hIeJoba1_2ma_BmrxrTI-1" vertex="1">
          <mxGeometry x="60" y="402.5" width="60" height="36.5" as="geometry" />
        </mxCell>
        <mxCell id="hIeJoba1_2ma_BmrxrTI-75" value="" style="rounded=0;whiteSpace=wrap;html=1;fillColor=#FFF2CC;strokeColor=#000000;" parent="hIeJoba1_2ma_BmrxrTI-1" vertex="1">
          <mxGeometry x="980" y="466.5" width="170" height="110" as="geometry" />
        </mxCell>
        <mxCell id="hIeJoba1_2ma_BmrxrTI-76" value="&lt;span style=&quot;font-size: 18px;&quot;&gt;推广&lt;/span&gt;" style="text;html=1;strokeColor=none;fillColor=none;align=center;verticalAlign=middle;whiteSpace=wrap;rounded=0;fontSize=18;" parent="hIeJoba1_2ma_BmrxrTI-1" vertex="1">
          <mxGeometry x="983.5" y="463.5" width="162.5" height="35" as="geometry" />
        </mxCell>
        <mxCell id="hIeJoba1_2ma_BmrxrTI-77" value="&lt;font style=&quot;font-size: 14px;&quot;&gt;回传配置&lt;/font&gt;" style="rounded=0;whiteSpace=wrap;html=1;fontSize=14;" parent="hIeJoba1_2ma_BmrxrTI-1" vertex="1">
          <mxGeometry x="986" y="536" width="74" height="30" as="geometry" />
        </mxCell>
        <mxCell id="hIeJoba1_2ma_BmrxrTI-78" value="" style="rounded=0;whiteSpace=wrap;html=1;fillColor=#FFF2CC;strokeColor=#000000;" parent="hIeJoba1_2ma_BmrxrTI-1" vertex="1">
          <mxGeometry x="979.25" y="583.75" width="170.75" height="100.75" as="geometry" />
        </mxCell>
        <mxCell id="hIeJoba1_2ma_BmrxrTI-79" value="&lt;span style=&quot;font-size: 24px;&quot;&gt;商户后台&lt;/span&gt;" style="text;html=1;strokeColor=none;fillColor=none;align=center;verticalAlign=middle;whiteSpace=wrap;rounded=0;" parent="hIeJoba1_2ma_BmrxrTI-1" vertex="1">
          <mxGeometry x="1000" y="437" width="119.75" height="29.5" as="geometry" />
        </mxCell>
        <mxCell id="hIeJoba1_2ma_BmrxrTI-80" value="&lt;font style=&quot;font-size: 14px;&quot;&gt;链接&lt;/font&gt;" style="rounded=0;whiteSpace=wrap;html=1;fontSize=14;" parent="hIeJoba1_2ma_BmrxrTI-1" vertex="1">
          <mxGeometry x="986" y="497" width="74" height="30" as="geometry" />
        </mxCell>
        <mxCell id="hIeJoba1_2ma_BmrxrTI-81" value="&lt;font style=&quot;font-size: 14px;&quot;&gt;优惠券&lt;/font&gt;" style="rounded=0;whiteSpace=wrap;html=1;fontSize=14;" parent="hIeJoba1_2ma_BmrxrTI-1" vertex="1">
          <mxGeometry x="986" y="647.5" width="74" height="30" as="geometry" />
        </mxCell>
        <mxCell id="hIeJoba1_2ma_BmrxrTI-82" value="&lt;span style=&quot;font-size: 18px;&quot;&gt;运营&lt;/span&gt;" style="text;html=1;strokeColor=none;fillColor=none;align=center;verticalAlign=middle;whiteSpace=wrap;rounded=0;fontSize=18;" parent="hIeJoba1_2ma_BmrxrTI-1" vertex="1">
          <mxGeometry x="979.5" y="578.88" width="162.5" height="35" as="geometry" />
        </mxCell>
        <mxCell id="hIeJoba1_2ma_BmrxrTI-83" value="&lt;font style=&quot;font-size: 14px;&quot;&gt;书城配置&lt;/font&gt;" style="rounded=0;whiteSpace=wrap;html=1;fontSize=14;" parent="hIeJoba1_2ma_BmrxrTI-1" vertex="1">
          <mxGeometry x="986" y="611" width="74" height="30" as="geometry" />
        </mxCell>
        <mxCell id="hIeJoba1_2ma_BmrxrTI-84" value="消息推送" style="rounded=0;whiteSpace=wrap;html=1;fontSize=14;" parent="hIeJoba1_2ma_BmrxrTI-1" vertex="1">
          <mxGeometry x="1068" y="536.5" width="74" height="30" as="geometry" />
        </mxCell>
        <mxCell id="hIeJoba1_2ma_BmrxrTI-85" value="" style="rounded=0;whiteSpace=wrap;html=1;fillColor=#FFF2CC;strokeColor=#000000;" parent="hIeJoba1_2ma_BmrxrTI-1" vertex="1">
          <mxGeometry x="980" y="691.5" width="170" height="98" as="geometry" />
        </mxCell>
        <mxCell id="hIeJoba1_2ma_BmrxrTI-86" value="" style="rounded=0;whiteSpace=wrap;html=1;fillColor=#FFF2CC;strokeColor=#000000;" parent="hIeJoba1_2ma_BmrxrTI-1" vertex="1">
          <mxGeometry x="980" y="796.5" width="170" height="110" as="geometry" />
        </mxCell>
        <mxCell id="hIeJoba1_2ma_BmrxrTI-87" value="&lt;font style=&quot;font-size: 18px;&quot;&gt;投放&amp;amp;授权&lt;/font&gt;" style="text;html=1;strokeColor=none;fillColor=none;align=center;verticalAlign=middle;whiteSpace=wrap;rounded=0;fontSize=18;" parent="hIeJoba1_2ma_BmrxrTI-1" vertex="1">
          <mxGeometry x="1011.19" y="801.5" width="99.12" height="20" as="geometry" />
        </mxCell>
        <mxCell id="hIeJoba1_2ma_BmrxrTI-88" value="&lt;font style=&quot;font-size: 18px;&quot;&gt;数据看板&lt;/font&gt;" style="text;html=1;strokeColor=none;fillColor=none;align=center;verticalAlign=middle;whiteSpace=wrap;rounded=0;fontSize=18;" parent="hIeJoba1_2ma_BmrxrTI-1" vertex="1">
          <mxGeometry x="980" y="687.5" width="170" height="35" as="geometry" />
        </mxCell>
        <mxCell id="hIeJoba1_2ma_BmrxrTI-89" value="用户" style="rounded=0;whiteSpace=wrap;html=1;fontSize=14;" parent="hIeJoba1_2ma_BmrxrTI-1" vertex="1">
          <mxGeometry x="986" y="718.5" width="74" height="30" as="geometry" />
        </mxCell>
        <mxCell id="hIeJoba1_2ma_BmrxrTI-90" value="订单" style="rounded=0;whiteSpace=wrap;html=1;fontSize=14;" parent="hIeJoba1_2ma_BmrxrTI-1" vertex="1">
          <mxGeometry x="986" y="753.75" width="74" height="30" as="geometry" />
        </mxCell>
        <mxCell id="hIeJoba1_2ma_BmrxrTI-91" value="充值" style="rounded=0;whiteSpace=wrap;html=1;fontSize=14;" parent="hIeJoba1_2ma_BmrxrTI-1" vertex="1">
          <mxGeometry x="1064" y="718.5" width="74" height="30" as="geometry" />
        </mxCell>
        <mxCell id="hIeJoba1_2ma_BmrxrTI-92" value="活动数据" style="rounded=0;whiteSpace=wrap;html=1;fontSize=14;" parent="hIeJoba1_2ma_BmrxrTI-1" vertex="1">
          <mxGeometry x="1064" y="753.75" width="74" height="30" as="geometry" />
        </mxCell>
        <mxCell id="hIeJoba1_2ma_BmrxrTI-93" value="&lt;font style=&quot;font-size: 14px;&quot;&gt;广告&lt;/font&gt;" style="rounded=0;whiteSpace=wrap;html=1;fontSize=14;" parent="hIeJoba1_2ma_BmrxrTI-1" vertex="1">
          <mxGeometry x="1069" y="497" width="74" height="30" as="geometry" />
        </mxCell>
        <mxCell id="hIeJoba1_2ma_BmrxrTI-94" value="客服" style="rounded=0;whiteSpace=wrap;html=1;fontSize=14;" parent="hIeJoba1_2ma_BmrxrTI-1" vertex="1">
          <mxGeometry x="1064" y="647.5" width="74" height="30" as="geometry" />
        </mxCell>
        <mxCell id="hIeJoba1_2ma_BmrxrTI-95" value="MP" style="rounded=0;whiteSpace=wrap;html=1;fontSize=14;" parent="hIeJoba1_2ma_BmrxrTI-1" vertex="1">
          <mxGeometry x="986" y="826.5" width="74" height="30" as="geometry" />
        </mxCell>
        <mxCell id="hIeJoba1_2ma_BmrxrTI-96" value="巨量" style="rounded=0;whiteSpace=wrap;html=1;fontSize=14;" parent="hIeJoba1_2ma_BmrxrTI-1" vertex="1">
          <mxGeometry x="1068" y="826.5" width="74" height="30" as="geometry" />
        </mxCell>
        <mxCell id="hIeJoba1_2ma_BmrxrTI-97" value="广点通" style="rounded=0;whiteSpace=wrap;html=1;fontSize=14;" parent="hIeJoba1_2ma_BmrxrTI-1" vertex="1">
          <mxGeometry x="986" y="864" width="74" height="30" as="geometry" />
        </mxCell>
        <mxCell id="hIeJoba1_2ma_BmrxrTI-98" value="企微" style="rounded=0;whiteSpace=wrap;html=1;fontSize=14;" parent="hIeJoba1_2ma_BmrxrTI-1" vertex="1">
          <mxGeometry x="1069" y="864" width="74" height="30" as="geometry" />
        </mxCell>
        <mxCell id="hIeJoba1_2ma_BmrxrTI-99" value="&lt;span style=&quot;font-size: 14px;&quot;&gt;充值档位&lt;/span&gt;" style="rounded=0;whiteSpace=wrap;html=1;fontSize=14;" parent="hIeJoba1_2ma_BmrxrTI-1" vertex="1">
          <mxGeometry x="1064" y="611" width="74" height="30" as="geometry" />
        </mxCell>
        <mxCell id="hIeJoba1_2ma_BmrxrTI-100" value="&lt;font style=&quot;font-size: 18px;&quot;&gt;阅读进度&lt;/font&gt;" style="rounded=0;whiteSpace=wrap;html=1;" parent="hIeJoba1_2ma_BmrxrTI-1" vertex="1">
          <mxGeometry x="866" y="871.5" width="74" height="35" as="geometry" />
        </mxCell>
        <mxCell id="BXKLDlMg8tTgGFCJG3Cu-0" value="&lt;span style=&quot;font-size: 24px;&quot;&gt;徐雷/新仲&lt;/span&gt;" style="text;html=1;strokeColor=none;fillColor=none;align=center;verticalAlign=middle;whiteSpace=wrap;rounded=0;" vertex="1" parent="hIeJoba1_2ma_BmrxrTI-1">
          <mxGeometry x="1015" y="376.5" width="125" height="30" as="geometry" />
        </mxCell>
        <mxCell id="BXKLDlMg8tTgGFCJG3Cu-1" value="&lt;font style=&quot;font-size: 24px;&quot;&gt;新仲/宁昆&lt;/font&gt;" style="text;html=1;strokeColor=none;fillColor=none;align=center;verticalAlign=middle;whiteSpace=wrap;rounded=0;" vertex="1" parent="hIeJoba1_2ma_BmrxrTI-1">
          <mxGeometry x="1200" y="376.5" width="120" height="30" as="geometry" />
        </mxCell>
        <mxCell id="BXKLDlMg8tTgGFCJG3Cu-2" value="&lt;font style=&quot;font-size: 24px;&quot;&gt;张军&lt;/font&gt;" style="text;html=1;strokeColor=none;fillColor=none;align=center;verticalAlign=middle;whiteSpace=wrap;rounded=0;" vertex="1" parent="hIeJoba1_2ma_BmrxrTI-1">
          <mxGeometry x="1340" y="771.5" width="100" height="30" as="geometry" />
        </mxCell>
        <mxCell id="BXKLDlMg8tTgGFCJG3Cu-3" value="&lt;span style=&quot;font-size: 24px;&quot;&gt;谢新仲&lt;/span&gt;&lt;font style=&quot;font-size: 18px;&quot;&gt;（欧阳）&lt;/font&gt;" style="text;html=1;strokeColor=none;fillColor=none;align=center;verticalAlign=middle;whiteSpace=wrap;rounded=0;" vertex="1" parent="hIeJoba1_2ma_BmrxrTI-1">
          <mxGeometry x="290" y="699" width="100" height="30" as="geometry" />
        </mxCell>
        <mxCell id="ON5QXbSR_Yyp0dDCvBte-5" value="" style="edgeStyle=orthogonalEdgeStyle;rounded=0;orthogonalLoop=1;jettySize=auto;html=1;fontSize=12;" edge="1" parent="hIeJoba1_2ma_BmrxrTI-1" target="BXKLDlMg8tTgGFCJG3Cu-5">
          <mxGeometry relative="1" as="geometry">
            <mxPoint x="190" y="794" as="sourcePoint" />
            <Array as="points">
              <mxPoint x="190" y="879" />
            </Array>
          </mxGeometry>
        </mxCell>
        <mxCell id="BXKLDlMg8tTgGFCJG3Cu-4" value="&lt;span style=&quot;font-size: 24px;&quot;&gt;段亦逍&lt;/span&gt;&lt;br&gt;&lt;font style=&quot;font-size: 18px;&quot;&gt;（靖凯、鸿洋）&lt;/font&gt;" style="text;html=1;strokeColor=none;fillColor=none;align=center;verticalAlign=middle;whiteSpace=wrap;rounded=0;" vertex="1" parent="hIeJoba1_2ma_BmrxrTI-1">
          <mxGeometry x="270" y="779" width="130" height="30" as="geometry" />
        </mxCell>
        <mxCell id="BXKLDlMg8tTgGFCJG3Cu-5" value="&lt;span style=&quot;font-size: 24px;&quot;&gt;段亦逍&lt;/span&gt;&lt;br&gt;&lt;font style=&quot;font-size: 18px;&quot;&gt;（家铭）&lt;/font&gt;" style="text;html=1;strokeColor=none;fillColor=none;align=center;verticalAlign=middle;whiteSpace=wrap;rounded=0;" vertex="1" parent="hIeJoba1_2ma_BmrxrTI-1">
          <mxGeometry x="290" y="864" width="100" height="30" as="geometry" />
        </mxCell>
        <mxCell id="ON5QXbSR_Yyp0dDCvBte-2" style="edgeStyle=orthogonalEdgeStyle;rounded=0;orthogonalLoop=1;jettySize=auto;html=1;exitX=0.5;exitY=1;exitDx=0;exitDy=0;fontSize=12;entryX=0;entryY=0.25;entryDx=0;entryDy=0;" edge="1" parent="hIeJoba1_2ma_BmrxrTI-1">
          <mxGeometry relative="1" as="geometry">
            <mxPoint x="543.07" y="150" as="sourcePoint" />
            <mxPoint x="288.07" y="540" as="targetPoint" />
            <Array as="points">
              <mxPoint x="543" y="341" />
              <mxPoint x="230" y="341" />
              <mxPoint x="230" y="540" />
            </Array>
          </mxGeometry>
        </mxCell>
        <mxCell id="ON5QXbSR_Yyp0dDCvBte-7" style="edgeStyle=orthogonalEdgeStyle;rounded=0;orthogonalLoop=1;jettySize=auto;html=1;exitX=0.5;exitY=1;exitDx=0;exitDy=0;fontSize=12;entryX=0.5;entryY=0;entryDx=0;entryDy=0;" edge="1" parent="hIeJoba1_2ma_BmrxrTI-1" source="hIeJoba1_2ma_BmrxrTI-66" target="BXKLDlMg8tTgGFCJG3Cu-1">
          <mxGeometry relative="1" as="geometry">
            <mxPoint x="1145" y="162.5" as="sourcePoint" />
            <mxPoint x="1075.0588235294117" y="386.5" as="targetPoint" />
            <Array as="points">
              <mxPoint x="1135" y="260" />
              <mxPoint x="1260" y="260" />
            </Array>
          </mxGeometry>
        </mxCell>
        <mxCell id="ON5QXbSR_Yyp0dDCvBte-8" value="&lt;font style=&quot;font-size: 14px;&quot;&gt;需求评审&lt;/font&gt;" style="text;html=1;align=center;verticalAlign=middle;resizable=0;points=[];autosize=1;strokeColor=none;fillColor=none;fontSize=12;" vertex="1" parent="hIeJoba1_2ma_BmrxrTI-1">
          <mxGeometry x="1138" y="210" width="80" height="30" as="geometry" />
        </mxCell>
        <mxCell id="ON5QXbSR_Yyp0dDCvBte-9" value="&lt;font style=&quot;font-size: 14px;&quot;&gt;需求评审&lt;/font&gt;" style="text;html=1;align=center;verticalAlign=middle;resizable=0;points=[];autosize=1;strokeColor=none;fillColor=none;fontSize=12;" vertex="1" parent="hIeJoba1_2ma_BmrxrTI-1">
          <mxGeometry x="543.13" y="190" width="80" height="30" as="geometry" />
        </mxCell>
      </root>
    </mxGraphModel>
  </diagram>
  <diagram name="服务化+人" id="ijk-u3RgYs-QDanwJtzI">
    <mxGraphModel dx="3410" dy="1378" grid="1" gridSize="10" guides="1" tooltips="1" connect="1" arrows="1" fold="1" page="1" pageScale="1" pageWidth="827" pageHeight="1169" math="0" shadow="0">
      <root>
        <mxCell id="CByYY-2fTsQM7U5928xj-0" />
        <mxCell id="CByYY-2fTsQM7U5928xj-1" parent="CByYY-2fTsQM7U5928xj-0" />
        <mxCell id="CByYY-2fTsQM7U5928xj-2" value="" style="rounded=1;whiteSpace=wrap;html=1;shadow=1;strokeColor=#000000;fillColor=#FFFFFF;arcSize=10;" parent="CByYY-2fTsQM7U5928xj-1" vertex="1">
          <mxGeometry x="10" y="270" width="1640" height="880" as="geometry" />
        </mxCell>
        <mxCell id="jsf28MMuOqu-ure8cB-A-7" value="" style="edgeStyle=orthogonalEdgeStyle;rounded=0;orthogonalLoop=1;jettySize=auto;html=1;entryX=0.5;entryY=0;entryDx=0;entryDy=0;fontSize=19;exitX=0.71;exitY=1;exitDx=0;exitDy=0;exitPerimeter=0;" edge="1" parent="CByYY-2fTsQM7U5928xj-1" source="CByYY-2fTsQM7U5928xj-5" target="CByYY-2fTsQM7U5928xj-2">
          <mxGeometry relative="1" as="geometry">
            <mxPoint x="830" y="150" as="sourcePoint" />
          </mxGeometry>
        </mxCell>
        <mxCell id="CByYY-2fTsQM7U5928xj-3" value="" style="rounded=0;whiteSpace=wrap;html=1;fillColor=#dae8fc;strokeColor=#6c8ebf;" parent="CByYY-2fTsQM7U5928xj-1" vertex="1">
          <mxGeometry x="315.25" y="40" width="1024.75" height="90" as="geometry" />
        </mxCell>
        <mxCell id="CByYY-2fTsQM7U5928xj-4" value="&lt;font style=&quot;font-size: 24px;&quot;&gt;微信（公众号、小程序）&lt;/font&gt;" style="rounded=1;whiteSpace=wrap;html=1;" parent="CByYY-2fTsQM7U5928xj-1" vertex="1">
          <mxGeometry x="335.25" y="60" width="270" height="60" as="geometry" />
        </mxCell>
        <mxCell id="CByYY-2fTsQM7U5928xj-5" value="&lt;font style=&quot;font-size: 24px;&quot;&gt;移动App（快应用、仓雄）&lt;/font&gt;" style="rounded=1;whiteSpace=wrap;html=1;" parent="CByYY-2fTsQM7U5928xj-1" vertex="1">
          <mxGeometry x="626.56" y="57.5" width="288.69" height="62.5" as="geometry" />
        </mxCell>
        <mxCell id="CByYY-2fTsQM7U5928xj-6" value="&lt;span style=&quot;font-size: 24px;&quot;&gt;业务线&lt;/span&gt;" style="text;html=1;strokeColor=none;fillColor=none;align=center;verticalAlign=middle;whiteSpace=wrap;rounded=0;" parent="CByYY-2fTsQM7U5928xj-1" vertex="1">
          <mxGeometry x="180" y="70" width="100" height="50" as="geometry" />
        </mxCell>
        <mxCell id="CByYY-2fTsQM7U5928xj-10" value="&lt;font style=&quot;font-size: 24px;&quot;&gt;商户&lt;/font&gt;" style="rounded=1;whiteSpace=wrap;html=1;" parent="CByYY-2fTsQM7U5928xj-1" vertex="1">
          <mxGeometry x="936.25" y="57.5" width="174.75" height="65" as="geometry" />
        </mxCell>
        <mxCell id="CByYY-2fTsQM7U5928xj-12" value="" style="rounded=0;whiteSpace=wrap;html=1;fontSize=24;fillColor=#D5E8D4;strokeColor=#000000;" parent="CByYY-2fTsQM7U5928xj-1" vertex="1">
          <mxGeometry x="290.25" y="407" width="1024.75" height="150" as="geometry" />
        </mxCell>
        <mxCell id="CByYY-2fTsQM7U5928xj-14" value="微信分销" style="rounded=1;whiteSpace=wrap;html=1;fontSize=24;" parent="CByYY-2fTsQM7U5928xj-1" vertex="1">
          <mxGeometry x="301.19" y="467" width="154.75" height="55" as="geometry" />
        </mxCell>
        <mxCell id="CByYY-2fTsQM7U5928xj-15" value="仓雄" style="rounded=1;whiteSpace=wrap;html=1;fontSize=24;" parent="CByYY-2fTsQM7U5928xj-1" vertex="1">
          <mxGeometry x="838.19" y="467" width="147" height="55" as="geometry" />
        </mxCell>
        <mxCell id="CByYY-2fTsQM7U5928xj-16" value="&lt;font style=&quot;font-size: 24px;&quot;&gt;业务层&lt;/font&gt;" style="text;html=1;strokeColor=none;fillColor=none;align=center;verticalAlign=middle;whiteSpace=wrap;rounded=0;" parent="CByYY-2fTsQM7U5928xj-1" vertex="1">
          <mxGeometry x="-20" y="407" width="150" height="120" as="geometry" />
        </mxCell>
        <mxCell id="CByYY-2fTsQM7U5928xj-17" value="" style="rounded=0;whiteSpace=wrap;html=1;fillColor=#D5E8D4;strokeColor=#000000;" parent="CByYY-2fTsQM7U5928xj-1" vertex="1">
          <mxGeometry x="290.25" y="587" width="844.75" height="410" as="geometry" />
        </mxCell>
        <mxCell id="CByYY-2fTsQM7U5928xj-19" value="" style="rounded=0;whiteSpace=wrap;html=1;" parent="CByYY-2fTsQM7U5928xj-1" vertex="1">
          <mxGeometry x="314.82" y="619" width="260.18" height="158" as="geometry" />
        </mxCell>
        <mxCell id="CByYY-2fTsQM7U5928xj-20" value="&lt;font style=&quot;font-size: 24px;&quot;&gt;看书服务域&lt;/font&gt;" style="text;html=1;strokeColor=none;fillColor=none;align=center;verticalAlign=middle;whiteSpace=wrap;rounded=0;" parent="CByYY-2fTsQM7U5928xj-1" vertex="1">
          <mxGeometry x="380.28999999999996" y="627" width="129.24" height="30" as="geometry" />
        </mxCell>
        <mxCell id="CByYY-2fTsQM7U5928xj-23" value="" style="rounded=0;whiteSpace=wrap;html=1;" parent="CByYY-2fTsQM7U5928xj-1" vertex="1">
          <mxGeometry x="314.82" y="789.5" width="260.18" height="167.5" as="geometry" />
        </mxCell>
        <mxCell id="CByYY-2fTsQM7U5928xj-24" value="&lt;font style=&quot;font-size: 24px;&quot;&gt;服务层&lt;/font&gt;" style="text;html=1;strokeColor=none;fillColor=none;align=center;verticalAlign=middle;whiteSpace=wrap;rounded=0;" parent="CByYY-2fTsQM7U5928xj-1" vertex="1">
          <mxGeometry x="-20" y="697" width="150" height="120" as="geometry" />
        </mxCell>
        <mxCell id="CByYY-2fTsQM7U5928xj-25" value="" style="rounded=0;whiteSpace=wrap;html=1;" parent="CByYY-2fTsQM7U5928xj-1" vertex="1">
          <mxGeometry x="601.56" y="634.5" width="250.37" height="325" as="geometry" />
        </mxCell>
        <mxCell id="CByYY-2fTsQM7U5928xj-26" value="" style="rounded=0;whiteSpace=wrap;html=1;" parent="CByYY-2fTsQM7U5928xj-1" vertex="1">
          <mxGeometry x="883.63" y="837.5" width="231.37" height="129.5" as="geometry" />
        </mxCell>
        <mxCell id="CByYY-2fTsQM7U5928xj-27" value="&lt;span style=&quot;font-size: 24px;&quot;&gt;找书&lt;/span&gt;&lt;span style=&quot;font-size: 24px;&quot;&gt;服务域&lt;/span&gt;" style="text;html=1;strokeColor=none;fillColor=none;align=center;verticalAlign=middle;whiteSpace=wrap;rounded=0;" parent="CByYY-2fTsQM7U5928xj-1" vertex="1">
          <mxGeometry x="380.28999999999996" y="802" width="129.24" height="30" as="geometry" />
        </mxCell>
        <mxCell id="CByYY-2fTsQM7U5928xj-28" value="&lt;span style=&quot;font-size: 24px;&quot;&gt;触达/运营&lt;/span&gt;&lt;span style=&quot;font-size: 24px;&quot;&gt;服务域&lt;/span&gt;" style="text;html=1;strokeColor=none;fillColor=none;align=center;verticalAlign=middle;whiteSpace=wrap;rounded=0;" parent="CByYY-2fTsQM7U5928xj-1" vertex="1">
          <mxGeometry x="635.21" y="645.5" width="183.06" height="30" as="geometry" />
        </mxCell>
        <mxCell id="CByYY-2fTsQM7U5928xj-29" value="&lt;span style=&quot;font-size: 24px;&quot;&gt;投放&lt;/span&gt;" style="text;html=1;strokeColor=none;fillColor=none;align=center;verticalAlign=middle;whiteSpace=wrap;rounded=0;" parent="CByYY-2fTsQM7U5928xj-1" vertex="1">
          <mxGeometry x="966.51" y="840.5" width="60" height="30" as="geometry" />
        </mxCell>
        <mxCell id="CByYY-2fTsQM7U5928xj-30" value="&lt;font style=&quot;font-size: 24px;&quot;&gt;cms服务&lt;/font&gt;" style="rounded=1;whiteSpace=wrap;html=1;fontSize=18;fillColor=#fff2cc;strokeColor=#d6b656;" parent="CByYY-2fTsQM7U5928xj-1" vertex="1">
          <mxGeometry x="360.5" y="844" width="154.75" height="30" as="geometry" />
        </mxCell>
        <mxCell id="CByYY-2fTsQM7U5928xj-32" value="&lt;font style=&quot;font-size: 24px;&quot;&gt;包年服务&lt;/font&gt;" style="rounded=1;whiteSpace=wrap;html=1;fontSize=18;fillColor=#CCFFCC;strokeColor=#000000;" parent="CByYY-2fTsQM7U5928xj-1" vertex="1">
          <mxGeometry x="644.4300000000001" y="684.5" width="162.25" height="30" as="geometry" />
        </mxCell>
        <mxCell id="CByYY-2fTsQM7U5928xj-34" value="&lt;span style=&quot;font-size: 24px;&quot;&gt;微信消息服务&lt;/span&gt;" style="rounded=1;whiteSpace=wrap;html=1;fontSize=18;fillColor=#fff2cc;strokeColor=#d6b656;" parent="CByYY-2fTsQM7U5928xj-1" vertex="1">
          <mxGeometry x="645.6200000000001" y="729.5" width="162.25" height="30" as="geometry" />
        </mxCell>
        <mxCell id="CByYY-2fTsQM7U5928xj-40" value="" style="rounded=0;whiteSpace=wrap;html=1;" parent="CByYY-2fTsQM7U5928xj-1" vertex="1">
          <mxGeometry x="883.63" y="634.5" width="231.37" height="192.5" as="geometry" />
        </mxCell>
        <mxCell id="CByYY-2fTsQM7U5928xj-41" value="&lt;span style=&quot;font-size: 24px;&quot;&gt;充值&lt;/span&gt;&lt;span style=&quot;font-size: 24px;&quot;&gt;服务域&lt;/span&gt;" style="text;html=1;strokeColor=none;fillColor=none;align=center;verticalAlign=middle;whiteSpace=wrap;rounded=0;" parent="CByYY-2fTsQM7U5928xj-1" vertex="1">
          <mxGeometry x="935.12" y="645.5" width="130.25" height="30" as="geometry" />
        </mxCell>
        <mxCell id="CByYY-2fTsQM7U5928xj-47" value="&lt;font style=&quot;font-size: 24px;&quot;&gt;充值档位服务&lt;/font&gt;" style="rounded=1;whiteSpace=wrap;html=1;fontSize=18;fillColor=#fff2cc;strokeColor=#000000;" parent="CByYY-2fTsQM7U5928xj-1" vertex="1">
          <mxGeometry x="922.87" y="684.5" width="154.75" height="30" as="geometry" />
        </mxCell>
        <mxCell id="CByYY-2fTsQM7U5928xj-48" value="" style="rounded=0;whiteSpace=wrap;html=1;fontSize=24;fillColor=#D5E8D4;strokeColor=#000000;" parent="CByYY-2fTsQM7U5928xj-1" vertex="1">
          <mxGeometry x="1152.5800000000002" y="587" width="170" height="410" as="geometry" />
        </mxCell>
        <mxCell id="CByYY-2fTsQM7U5928xj-49" value="异步任务域" style="text;html=1;strokeColor=none;fillColor=none;align=center;verticalAlign=middle;whiteSpace=wrap;rounded=0;fontSize=24;" parent="CByYY-2fTsQM7U5928xj-1" vertex="1">
          <mxGeometry x="1125" y="607" width="225.5" height="50" as="geometry" />
        </mxCell>
        <mxCell id="CByYY-2fTsQM7U5928xj-51" value="" style="rounded=0;whiteSpace=wrap;html=1;fontSize=24;fillColor=#e1d5e7;strokeColor=#000000;" parent="CByYY-2fTsQM7U5928xj-1" vertex="1">
          <mxGeometry x="290.25" y="1020" width="754.75" height="130" as="geometry" />
        </mxCell>
        <mxCell id="CByYY-2fTsQM7U5928xj-52" value="&lt;font style=&quot;font-size: 24px;&quot;&gt;基础设施层&lt;/font&gt;" style="text;html=1;strokeColor=none;fillColor=none;align=center;verticalAlign=middle;whiteSpace=wrap;rounded=0;" parent="CByYY-2fTsQM7U5928xj-1" vertex="1">
          <mxGeometry x="10" y="1020" width="150" height="120" as="geometry" />
        </mxCell>
        <mxCell id="CByYY-2fTsQM7U5928xj-54" value="&lt;span style=&quot;font-size: 24px;&quot;&gt;充值回调服务&lt;/span&gt;" style="rounded=1;whiteSpace=wrap;html=1;fontSize=18;fillColor=#FFFFFF;strokeColor=#000000;" parent="CByYY-2fTsQM7U5928xj-1" vertex="1">
          <mxGeometry x="495" y="1057" width="162.25" height="30" as="geometry" />
        </mxCell>
        <mxCell id="CByYY-2fTsQM7U5928xj-56" value="&lt;span style=&quot;font-size: 24px;&quot;&gt;用户服务&lt;/span&gt;" style="rounded=1;whiteSpace=wrap;html=1;fontSize=18;fillColor=#FFF2CC;strokeColor=#b85450;" parent="CByYY-2fTsQM7U5928xj-1" vertex="1">
          <mxGeometry x="309.5" y="1100" width="125.5" height="30" as="geometry" />
        </mxCell>
        <mxCell id="CByYY-2fTsQM7U5928xj-57" value="&lt;span style=&quot;font-size: 24px;&quot;&gt;实时统计服务&lt;/span&gt;" style="rounded=1;whiteSpace=wrap;html=1;fontSize=18;fillColor=#FFFFFF;strokeColor=#000000;" parent="CByYY-2fTsQM7U5928xj-1" vertex="1">
          <mxGeometry x="495" y="1100" width="162.25" height="30" as="geometry" />
        </mxCell>
        <mxCell id="CByYY-2fTsQM7U5928xj-58" value="中台（用户计费、通用、智能、数据）" style="rounded=0;whiteSpace=wrap;html=1;fontSize=24;fillColor=#e1d5e7;strokeColor=#000000;" parent="CByYY-2fTsQM7U5928xj-1" vertex="1">
          <mxGeometry x="1055" y="1020" width="270" height="130" as="geometry" />
        </mxCell>
        <mxCell id="CByYY-2fTsQM7U5928xj-59" value="短剧" style="rounded=1;whiteSpace=wrap;html=1;fontSize=24;" parent="CByYY-2fTsQM7U5928xj-1" vertex="1">
          <mxGeometry x="682.59" y="467" width="126.63" height="55" as="geometry" />
        </mxCell>
        <mxCell id="CByYY-2fTsQM7U5928xj-60" value="快应用" style="rounded=1;whiteSpace=wrap;html=1;fontSize=24;" parent="CByYY-2fTsQM7U5928xj-1" vertex="1">
          <mxGeometry x="477.32" y="467" width="164.75" height="55" as="geometry" />
        </mxCell>
        <mxCell id="CByYY-2fTsQM7U5928xj-61" value="商户后台" style="rounded=1;whiteSpace=wrap;html=1;fontSize=24;" parent="CByYY-2fTsQM7U5928xj-1" vertex="1">
          <mxGeometry x="1013.44" y="464.5" width="134.18" height="60" as="geometry" />
        </mxCell>
        <mxCell id="CByYY-2fTsQM7U5928xj-62" value="&lt;span style=&quot;font-size: 24px;&quot;&gt;token服务etc...&lt;/span&gt;" style="rounded=1;whiteSpace=wrap;html=1;fontSize=18;fillColor=#FFFFFF;strokeColor=#000000;" parent="CByYY-2fTsQM7U5928xj-1" vertex="1">
          <mxGeometry x="683.62" y="1057" width="166.38" height="30" as="geometry" />
        </mxCell>
        <mxCell id="CByYY-2fTsQM7U5928xj-63" value="新业务" style="rounded=1;whiteSpace=wrap;html=1;fontSize=24;fillColor=#FFFFCC;strokeColor=#000000;" parent="CByYY-2fTsQM7U5928xj-1" vertex="1">
          <mxGeometry x="1166.6000000000001" y="464.5" width="134.18" height="60" as="geometry" />
        </mxCell>
        <mxCell id="CByYY-2fTsQM7U5928xj-64" value="&lt;span style=&quot;font-size: 24px;&quot;&gt;新业务&lt;/span&gt;" style="rounded=1;whiteSpace=wrap;html=1;strokeColor=#000000;fillColor=#FFFFCC;" parent="CByYY-2fTsQM7U5928xj-1" vertex="1">
          <mxGeometry x="1127.63" y="57.5" width="174.75" height="65" as="geometry" />
        </mxCell>
        <mxCell id="CByYY-2fTsQM7U5928xj-71" value="&lt;span style=&quot;font-size: 24px;&quot;&gt;微信消息服务&lt;/span&gt;" style="rounded=1;whiteSpace=wrap;html=1;fontSize=18;fillColor=#fff2cc;strokeColor=#d6b656;" parent="CByYY-2fTsQM7U5928xj-1" vertex="1">
          <mxGeometry x="645.6200000000001" y="729.5" width="162.25" height="30" as="geometry" />
        </mxCell>
        <mxCell id="CByYY-2fTsQM7U5928xj-76" value="&lt;span style=&quot;font-size: 24px;&quot;&gt;赠券服务etc...&lt;/span&gt;" style="rounded=1;whiteSpace=wrap;html=1;fontSize=18;fillColor=#FFFFFF;strokeColor=#000000;" parent="CByYY-2fTsQM7U5928xj-1" vertex="1">
          <mxGeometry x="922.88" y="724.5" width="154.75" height="30" as="geometry" />
        </mxCell>
        <mxCell id="CByYY-2fTsQM7U5928xj-78" value="&lt;span style=&quot;font-size: 24px;&quot;&gt;消息服务&lt;/span&gt;" style="rounded=1;whiteSpace=wrap;html=1;fontSize=18;fillColor=#FFFFFF;strokeColor=#000000;" parent="CByYY-2fTsQM7U5928xj-1" vertex="1">
          <mxGeometry x="645.6200000000001" y="729.5" width="162.25" height="30" as="geometry" />
        </mxCell>
        <mxCell id="CByYY-2fTsQM7U5928xj-79" value="&lt;font style=&quot;font-size: 24px;&quot;&gt;签到服务etc...&lt;/font&gt;" style="rounded=1;whiteSpace=wrap;html=1;fontSize=18;fillColor=#FFFFFF;strokeColor=#000000;" parent="CByYY-2fTsQM7U5928xj-1" vertex="1">
          <mxGeometry x="644.4300000000001" y="772" width="162.25" height="30" as="geometry" />
        </mxCell>
        <mxCell id="CByYY-2fTsQM7U5928xj-80" value="&lt;font style=&quot;font-size: 24px;&quot;&gt;归因服务etc...&lt;/font&gt;" style="rounded=1;whiteSpace=wrap;html=1;fontSize=18;fillColor=#FFFFFF;strokeColor=#000000;" parent="CByYY-2fTsQM7U5928xj-1" vertex="1">
          <mxGeometry x="915.37" y="877" width="162.25" height="30" as="geometry" />
        </mxCell>
        <mxCell id="CByYY-2fTsQM7U5928xj-81" value="&lt;span style=&quot;font-size: 24px;&quot;&gt;用户标签服务&lt;/span&gt;" style="rounded=1;whiteSpace=wrap;html=1;fontSize=18;fillColor=#FFFFFF;strokeColor=#000000;" parent="CByYY-2fTsQM7U5928xj-1" vertex="1">
          <mxGeometry x="683.6199999999998" y="1100" width="156.07" height="30" as="geometry" />
        </mxCell>
        <mxCell id="CByYY-2fTsQM7U5928xj-82" value="&lt;span style=&quot;font-size: 24px;&quot;&gt;租户服务&lt;/span&gt;" style="rounded=1;whiteSpace=wrap;html=1;fontSize=18;fillColor=#CCFFCC;strokeColor=#6c8ebf;" parent="CByYY-2fTsQM7U5928xj-1" vertex="1">
          <mxGeometry x="309.5" y="1057" width="125.5" height="30" as="geometry" />
        </mxCell>
        <mxCell id="CByYY-2fTsQM7U5928xj-84" value="&lt;span style=&quot;font-size: 24px;&quot;&gt;数据回传&lt;/span&gt;" style="rounded=0;whiteSpace=wrap;html=1;fillColor=#FFFFFF;strokeColor=#000000;" parent="CByYY-2fTsQM7U5928xj-1" vertex="1">
          <mxGeometry x="1172.58" y="754.5" width="137.92" height="75" as="geometry" />
        </mxCell>
        <mxCell id="CByYY-2fTsQM7U5928xj-88" value="&lt;font style=&quot;font-size: 24px;&quot;&gt;cms服务etc...&lt;/font&gt;" style="rounded=1;whiteSpace=wrap;html=1;fontSize=18;fillColor=#FFFFFF;strokeColor=#000000;" parent="CByYY-2fTsQM7U5928xj-1" vertex="1">
          <mxGeometry x="360.5" y="844" width="154.75" height="30" as="geometry" />
        </mxCell>
        <mxCell id="CByYY-2fTsQM7U5928xj-93" value="&lt;span style=&quot;font-size: 24px;&quot;&gt;租户服务&lt;/span&gt;" style="rounded=1;whiteSpace=wrap;html=1;fontSize=18;fillColor=#FFFFFF;strokeColor=#000000;" parent="CByYY-2fTsQM7U5928xj-1" vertex="1">
          <mxGeometry x="309.5" y="1057" width="125.5" height="30" as="geometry" />
        </mxCell>
        <mxCell id="CByYY-2fTsQM7U5928xj-94" value="&lt;span style=&quot;font-size: 24px;&quot;&gt;用户服务&lt;/span&gt;" style="rounded=1;whiteSpace=wrap;html=1;fontSize=18;fillColor=#FFFFFF;strokeColor=#000000;" parent="CByYY-2fTsQM7U5928xj-1" vertex="1">
          <mxGeometry x="309.5" y="1100" width="125.5" height="30" as="geometry" />
        </mxCell>
        <mxCell id="9w4X4ZJVPJz2SlEG9gxG-1" value="&lt;font style=&quot;font-size: 24px;&quot;&gt;价格服务etc...&lt;/font&gt;" style="rounded=1;whiteSpace=wrap;html=1;fontSize=18;fillColor=#FFFFFF;strokeColor=#000000;" vertex="1" parent="CByYY-2fTsQM7U5928xj-1">
          <mxGeometry x="363.79" y="660" width="162.25" height="27" as="geometry" />
        </mxCell>
        <mxCell id="9w4X4ZJVPJz2SlEG9gxG-2" value="&lt;font style=&quot;font-size: 24px;&quot;&gt;包年服务&lt;/font&gt;" style="rounded=1;whiteSpace=wrap;html=1;fontSize=18;fillColor=#FFFFFF;strokeColor=#000000;" vertex="1" parent="CByYY-2fTsQM7U5928xj-1">
          <mxGeometry x="644.4300000000001" y="684.5" width="162.25" height="30" as="geometry" />
        </mxCell>
        <mxCell id="9w4X4ZJVPJz2SlEG9gxG-3" value="&lt;font style=&quot;font-size: 24px;&quot;&gt;充值档位服务&lt;/font&gt;" style="rounded=1;whiteSpace=wrap;html=1;fontSize=18;fillColor=#FFFFFF;strokeColor=#000000;" vertex="1" parent="CByYY-2fTsQM7U5928xj-1">
          <mxGeometry x="922.87" y="684.5" width="154.75" height="30" as="geometry" />
        </mxCell>
        <mxCell id="9w4X4ZJVPJz2SlEG9gxG-4" value="&lt;font style=&quot;font-size: 24px;&quot;&gt;JOB&lt;/font&gt;" style="rounded=0;whiteSpace=wrap;html=1;fillColor=#FFFFFF;strokeColor=#000000;" vertex="1" parent="CByYY-2fTsQM7U5928xj-1">
          <mxGeometry x="1172.5800000000002" y="672" width="140.34" height="73.5" as="geometry" />
        </mxCell>
        <mxCell id="jsf28MMuOqu-ure8cB-A-0" value="&lt;br style=&quot;font-size: 19px;&quot;&gt;&lt;span style=&quot;font-size: 24px;&quot;&gt;每周一晚“双车轮”需求评审+排期，&lt;/span&gt;&lt;span style=&quot;font-size: 24px;&quot;&gt;为业务需求合理性及进度负责&lt;br&gt;&lt;/span&gt;&lt;span style=&quot;font-size: 24px;&quot;&gt;&lt;br&gt;与会人员：&lt;/span&gt;&lt;span style=&quot;font-size: 24px;&quot;&gt;肖翔&lt;/span&gt;&lt;span style=&quot;font-size: 24px;&quot;&gt;、秦志伟、谢新仲、段亦逍、徐雷&lt;br&gt;&lt;br&gt;&lt;/span&gt;" style="text;html=1;strokeColor=none;fillColor=none;align=center;verticalAlign=middle;whiteSpace=wrap;rounded=0;fontStyle=1" vertex="1" parent="CByYY-2fTsQM7U5928xj-1">
          <mxGeometry x="838.19" y="190" width="701.81" height="50" as="geometry" />
        </mxCell>
        <mxCell id="jsf28MMuOqu-ure8cB-A-1" value="&lt;span style=&quot;font-size: 24px;&quot;&gt;谢新仲&lt;/span&gt;" style="text;html=1;strokeColor=none;fillColor=none;align=center;verticalAlign=middle;whiteSpace=wrap;rounded=0;fontStyle=1" vertex="1" parent="CByYY-2fTsQM7U5928xj-1">
          <mxGeometry x="335" y="414.5" width="100" height="50" as="geometry" />
        </mxCell>
        <mxCell id="jsf28MMuOqu-ure8cB-A-2" value="&lt;span style=&quot;font-size: 24px;&quot;&gt;谢新仲&lt;/span&gt;" style="text;html=1;strokeColor=none;fillColor=none;align=center;verticalAlign=middle;whiteSpace=wrap;rounded=0;fontStyle=1" vertex="1" parent="CByYY-2fTsQM7U5928xj-1">
          <mxGeometry x="495" y="417" width="100" height="50" as="geometry" />
        </mxCell>
        <mxCell id="jsf28MMuOqu-ure8cB-A-3" value="&lt;span style=&quot;font-size: 24px;&quot;&gt;段亦逍&lt;/span&gt;" style="text;html=1;strokeColor=none;fillColor=none;align=center;verticalAlign=middle;whiteSpace=wrap;rounded=0;fontStyle=1" vertex="1" parent="CByYY-2fTsQM7U5928xj-1">
          <mxGeometry x="760.25" y="414.5" width="100" height="50" as="geometry" />
        </mxCell>
        <mxCell id="jsf28MMuOqu-ure8cB-A-4" value="&lt;span style=&quot;font-size: 24px;&quot;&gt;徐雷&lt;/span&gt;" style="text;html=1;strokeColor=none;fillColor=none;align=center;verticalAlign=middle;whiteSpace=wrap;rounded=0;fontStyle=1" vertex="1" parent="CByYY-2fTsQM7U5928xj-1">
          <mxGeometry x="1026.51" y="414.5" width="113.49" height="50" as="geometry" />
        </mxCell>
        <mxCell id="Z2ugobhWGVB1TEea-aLq-6" style="edgeStyle=orthogonalEdgeStyle;rounded=0;orthogonalLoop=1;jettySize=auto;html=1;fontSize=20;" edge="1" parent="CByYY-2fTsQM7U5928xj-1">
          <mxGeometry relative="1" as="geometry">
            <mxPoint x="808" y="280" as="sourcePoint" />
            <mxPoint x="808" y="400" as="targetPoint" />
          </mxGeometry>
        </mxCell>
        <mxCell id="Z2ugobhWGVB1TEea-aLq-4" value="&lt;br style=&quot;font-size: 19px;&quot;&gt;&lt;span style=&quot;font-size: 24px;&quot;&gt;每周二技术评审+排期，为研发进度及技术架构合理性负责&lt;br&gt;&lt;br&gt;与会人员：&lt;/span&gt;&lt;span style=&quot;font-size: 24px;&quot;&gt;秦志伟、谢新仲、段亦逍、徐雷&lt;/span&gt;" style="text;html=1;strokeColor=none;fillColor=none;align=center;verticalAlign=middle;whiteSpace=wrap;rounded=0;fontStyle=1" vertex="1" parent="CByYY-2fTsQM7U5928xj-1">
          <mxGeometry x="760.25" y="310" width="716.7" height="50" as="geometry" />
        </mxCell>
        <mxCell id="Z2ugobhWGVB1TEea-aLq-7" value="&lt;span style=&quot;font-size: 24px;&quot;&gt;owner:孔家铭&lt;/span&gt;&lt;span style=&quot;font-size: 24px;&quot;&gt;&lt;br&gt;backup:唐靖凯&lt;br&gt;&lt;/span&gt;" style="text;html=1;strokeColor=none;fillColor=none;align=center;verticalAlign=middle;whiteSpace=wrap;rounded=0;fontStyle=1" vertex="1" parent="CByYY-2fTsQM7U5928xj-1">
          <mxGeometry x="360.49999999999994" y="704.5" width="170" height="50" as="geometry" />
        </mxCell>
        <mxCell id="Z2ugobhWGVB1TEea-aLq-8" value="&lt;span style=&quot;font-size: 24px;&quot;&gt;owner:唐俊凯&lt;br&gt;backup:张鸿洋&lt;br&gt;&lt;/span&gt;" style="text;html=1;strokeColor=none;fillColor=none;align=center;verticalAlign=middle;whiteSpace=wrap;rounded=0;fontStyle=1" vertex="1" parent="CByYY-2fTsQM7U5928xj-1">
          <mxGeometry x="645.6199999999999" y="848.25" width="170" height="50" as="geometry" />
        </mxCell>
        <mxCell id="Z2ugobhWGVB1TEea-aLq-9" value="&lt;span style=&quot;font-size: 24px;&quot;&gt;owner:&lt;/span&gt;&lt;span style=&quot;font-size: 24px;&quot;&gt;侯丽杰&lt;/span&gt;&lt;span style=&quot;font-size: 24px;&quot;&gt;&lt;br&gt;backup:谢新仲&lt;br&gt;&lt;/span&gt;" style="text;html=1;strokeColor=none;fillColor=none;align=center;verticalAlign=middle;whiteSpace=wrap;rounded=0;fontStyle=1" vertex="1" parent="CByYY-2fTsQM7U5928xj-1">
          <mxGeometry x="359.90999999999997" y="890" width="170" height="50" as="geometry" />
        </mxCell>
        <mxCell id="Z2ugobhWGVB1TEea-aLq-11" value="&lt;span style=&quot;font-size: 24px;&quot;&gt;owner:孔家铭&lt;br&gt;backup:张鸿洋&lt;br&gt;&lt;/span&gt;" style="text;html=1;strokeColor=none;fillColor=none;align=center;verticalAlign=middle;whiteSpace=wrap;rounded=0;fontStyle=1" vertex="1" parent="CByYY-2fTsQM7U5928xj-1">
          <mxGeometry x="915.3699999999999" y="772" width="170" height="50" as="geometry" />
        </mxCell>
        <mxCell id="Z2ugobhWGVB1TEea-aLq-12" value="&lt;span style=&quot;font-size: 24px;&quot;&gt;owner:张鸿洋&lt;br&gt;backup:孔家铭&lt;br&gt;&lt;/span&gt;" style="text;html=1;strokeColor=none;fillColor=none;align=center;verticalAlign=middle;whiteSpace=wrap;rounded=0;fontStyle=1" vertex="1" parent="CByYY-2fTsQM7U5928xj-1">
          <mxGeometry x="915.3699999999999" y="909.5" width="170" height="50" as="geometry" />
        </mxCell>
        <mxCell id="Z2ugobhWGVB1TEea-aLq-13" value="&lt;span style=&quot;font-size: 24px;&quot;&gt;owner:段亦逍&lt;br&gt;backup:唐靖凯&lt;br&gt;&lt;/span&gt;" style="text;html=1;strokeColor=none;fillColor=none;align=center;verticalAlign=middle;whiteSpace=wrap;rounded=0;fontStyle=1" vertex="1" parent="CByYY-2fTsQM7U5928xj-1">
          <mxGeometry x="860.2499999999999" y="1060" width="170" height="50" as="geometry" />
        </mxCell>
        <mxCell id="Z2ugobhWGVB1TEea-aLq-14" value="&lt;span style=&quot;font-size: 24px;&quot;&gt;owner和backup随服务域负责&lt;br&gt;&lt;/span&gt;" style="text;html=1;strokeColor=none;fillColor=none;align=center;verticalAlign=middle;whiteSpace=wrap;rounded=0;fontStyle=1" vertex="1" parent="CByYY-2fTsQM7U5928xj-1">
          <mxGeometry x="1152.58" y="877" width="170" height="50" as="geometry" />
        </mxCell>
        <mxCell id="Z2ugobhWGVB1TEea-aLq-15" value="&lt;span style=&quot;font-size: 24px;&quot;&gt;横向业务&lt;/span&gt;" style="text;html=1;strokeColor=none;fillColor=none;align=center;verticalAlign=middle;whiteSpace=wrap;rounded=0;fontStyle=1" vertex="1" parent="CByYY-2fTsQM7U5928xj-1">
          <mxGeometry x="1326.95" y="422" width="150" height="120" as="geometry" />
        </mxCell>
        <mxCell id="Z2ugobhWGVB1TEea-aLq-16" value="&lt;span style=&quot;font-size: 24px;&quot;&gt;纵向服务&lt;/span&gt;" style="text;html=1;strokeColor=none;fillColor=none;align=center;verticalAlign=middle;whiteSpace=wrap;rounded=0;fontStyle=1" vertex="1" parent="CByYY-2fTsQM7U5928xj-1">
          <mxGeometry x="1340" y="582" width="150" height="558" as="geometry" />
        </mxCell>
      </root>
    </mxGraphModel>
  </diagram>
</mxfile>
